<svg height="488pt" viewBox="-4 0 488 488.01013" width="488pt" xmlns="http://www.w3.org/2000/svg"><g fill="#ffda44"><path d="m472.003906 112.011719-40 40 24 32-48 40-16-48 24 8-8-48zm0 0"/><path d="m464.003906 248.011719-128 224-48-80-48 64-8-80 72-88 56 72zm0 0"/><path d="m432.003906 8.011719-24 64-48-8 8 24-48-16 40-48 32 24zm0 0"/></g><path d="m209.285156 265.851562-34.160156 7.839844-2.398438-4.160156-21.121093-37.679688 118.800781-121.761718 21.117188 37.679687 28.242187 50.242188 21.121094 37.679687zm0 0" fill="#c6c5ca"/><path d="m330.726562 158.808594c2.464844 4.285156 3.761719 9.140625 3.757813 14.082031-.015625 10.414063-5.640625 20.015625-14.71875 25.121094l-28.242187-50.242188c4.308593-2.398437 9.152343-3.664062 14.082031-3.679687 10.425781-.019532 20.039062 5.617187 25.121093 14.71875zm0 0" fill="#2488ff"/><path d="m234.964844 311.691406c2.574218 4.617188.929687 10.445313-3.679688 13.039063l-4.960937 2.800781c-.929688-3.636719-3.410157-6.683594-6.78125-8.328125-3.371094-1.648437-7.296875-1.734375-10.738281-.234375l-6.960938 2.402344-26.71875-47.679688 34.160156-7.839844zm0 0" fill="#898890"/><path d="m226.324219 327.53125c.246093.914062.378906 1.851562.402343 2.800781-.039062 5.035157-3.148437 9.535157-7.839843 11.359375l-77.839844 32.238282-5.042969 7.199218v98.882813h-128v-136h128l65.839844-22.640625 6.960938-2.402344c3.441406-1.5 7.367187-1.414062 10.738281.234375 3.371093 1.644531 5.851562 4.691406 6.78125 8.328125zm0 0" fill="#ff7956"/><path d="m216.003906 8.011719-64 160-72-16 24 64-88-16 48-104 40 24zm0 0" fill="#ffda44"/><path d="m153.925781 236.089844 18.800781 33.441406-16.722656 9.4375-18.800781-33.519531zm0 0" fill="#2488ff"/><path d="m156.003906 278.96875 4.722656 8.320312-11.203124 6.320313c-3.699219 2.082031-8.074219 2.601563-12.160157 1.445313-4.082031-1.15625-7.539062-3.894532-9.597656-7.605469l-12.5625-22.320313c-.324219-.625-.617187-1.265625-.878906-1.917968-2.980469-7.445313.035156-15.941407 7.039062-19.839844l11.121094-6.242188 4.71875 8.320313zm0 0" fill="#2488ff"/><path d="m98.566406 265.609375c3.628906 6.90625 5.5 14.601563 5.4375 22.402344 0 22.078125-14.320312 40-32 40-17.679687 0-32-17.921875-32-40 0-22.082031 14.320313-40 32-40 11.417969.527343 21.621094 7.289062 26.5625 17.597656zm0 0" fill="#d9ccbc"/><path d="m234.566406 332.066406.589844-.335937c8.488281-4.738281 11.527344-15.464844 6.785156-23.953125l-20.457031-36.488282 121.207031-27.824218c2.457032-.5625 4.503906-2.253906 5.523438-4.558594 1.019531-2.304688.894531-4.953125-.335938-7.152344l-17.699218-31.511718c12.875-11.472657 16.03125-30.359376 7.589843-45.394532-8.441406-15.035156-26.210937-22.171875-42.707031-17.148437l-17.699219-31.503907c-1.234375-2.199218-3.429687-3.683593-5.929687-4.011718-2.496094-.332032-5.003906.535156-6.765625 2.339844l-118.800781 121.765624c-1.617188 1.695313-2.402344 4.015626-2.148438 6.34375l-3.449219 1.9375-.800781-1.390624c-2.164062-3.855469-7.042969-5.222657-10.894531-3.058594l-11.160157 6.265625c-9.296874 5.15625-14.019531 15.875-11.554687 26.214843-6.15625-13.28125-19.226563-22.003906-33.855469-22.589843-22.054687 0-40 21.527343-40 48 0 26.46875 17.945313 48 40 48 22.058594 0 40-21.53125 40-48 0-5.75-.882812-11.464844-2.621094-16.945313l11.421876 20.3125c6.488281 11.558594 21.121093 15.667969 32.679687 9.175782l11.160156-6.265626c3.847657-2.164062 5.21875-7.035156 3.054688-10.886718l-.796875-1.398438 2.773437-1.601562 20.488281 36.472656-55.496093 19.136719h-126.664063c-4.417968 0-7.99999975 3.582031-7.99999975 8v136c0 4.417969 3.58203175 8 7.99999975 8h128c4.417969 0 8-3.582031 8-8v-96.371094l2.257813-3.199219 75.71875-31.34375c7.035156-2.894531 11.882812-9.457031 12.585937-17.03125zm76.703125-179.199218c6.6875 1.871093 11.996094 6.957031 14.160157 13.554687 2.160156 6.601563.882812 13.84375-3.402344 19.308594l-18.824219-33.511719c2.707031-.3125 5.445313-.09375 8.066406.640625zm-239.265625 167.144531c-13.230468 0-24-14.355469-24-32 0-17.648438 10.769532-32 24-32 13.234375 0 24 14.351562 24 32 0 17.644531-10.765625 32-24 32zm196.648438-196.65625 60 106.902343-149.503906 34.335938-17.640626-31.414062zm-123.046875 163.246093c-3.851563 2.167969-8.730469.796876-10.894531-3.054687l-12.539063-22.328125c-2.152344-3.851562-.78125-8.71875 3.066406-10.878906l4.214844-2.328125 19.582031 34.871093.800782 1.382813zm2.464843-38.078124 2.789063-1.601563 10.96875 19.535156-2.792969 1.601563zm67.757813 85.808593-77.824219 32.207031c-1.402344.582032-2.609375 1.546876-3.488281 2.78125l-5.046875 7.203126c-.953125 1.347656-1.460938 2.957031-1.464844 4.605468v90.882813h-112v-120h120c.886719-.003907 1.765625-.152344 2.601563-.441407l73.238281-25.214843c2.410156-1.042969 5.214844-.03125 6.402344 2.3125.523437 1.0625.554687 2.304687.085937 3.394531-.472656 1.09375-1.398437 1.921875-2.535156 2.269531zm-9.65625-22.921875-.613281.207032-18.21875-32.488282 17.890625-4.109375 22.605469 40.3125c-5.878907-5.335937-14.285157-6.855469-21.664063-3.921875zm0 0"/><path d="m321.605469 109.210938c19.324219-.027344 36.480469 12.347656 42.550781 30.695312 6.070312 18.34375-.320312 38.511719-15.847656 50.015625-.945313.726563-1.945313 1.433594-2.976563 2.089844h-1.328125v.796875l-.382812.21875.382812 14.984375h3.519532c1.367187-.003907 2.710937-.351563 3.90625-1.019531 2.28125-1.273438 4.464843-2.714844 6.535156-4.308594 21.011718-15.652344 29.621094-43.007813 21.363281-67.871094s-31.523437-41.632812-57.722656-41.601562c-10.40625.015624-20.632813 2.671874-29.726563 7.726562l7.773438 13.984375c6.714844-3.734375 14.269531-5.699219 21.953125-5.710937zm0 0"/><path d="m24.003906 448.011719h16v16h-16zm0 0"/><path d="m48.003906 448.011719h16v16h-16zm0 0"/><path d="m24.003906 424.011719h16v16h-16zm0 0"/><path d="m14.574219 207.875 88 16c.46875.09375.949219.136719 1.429687.136719 2.628906 0 5.089844-1.285157 6.585938-3.445313 1.496094-2.15625 1.835937-4.914062.910156-7.371094l-18.824219-50.175781 57.601563 12.796875c3.828125.828125 7.695312-1.214844 9.167968-4.847656l64-160c1.410157-3.527344.144532-7.558594-3.027343-9.648438-3.171875-2.089843-7.375-1.660156-10.0625 1.027344l-107.589844 107.589844-34.640625-20.800781c-1.949219-1.167969-4.300781-1.457031-6.472656-.789063-2.171875.671875-3.957032 2.230469-4.910156 4.292969l-48 104c-1.027344 2.246094-.964844 4.839844.175781 7.027344s3.226562 3.730469 5.65625 4.175781zm52.957031-100.417969 32.355469 19.410157c3.144531 1.890624 7.175781 1.394531 9.773437-1.199219l84.441406-84.441407-47 117.503907-65.359374-14.535157c-2.871094-.644531-5.859376.339844-7.789063 2.558594-1.929687 2.222656-2.484375 5.320313-1.445313 8.070313l19.058594 50.785156-64-11.632813zm0 0"/><path d="m458.140625 242.5625-97.597656 105.113281-50.21875-64.578125c-1.496094-1.921875-3.785157-3.058594-6.222657-3.085937-2.4375-.039063-4.753906 1.042969-6.289062 2.933593l-72 88c-1.34375 1.644532-1.980469 3.753907-1.765625 5.863282l8 80c.328125 3.28125 2.636719 6.023437 5.8125 6.910156 3.175781.882812 6.566406-.269531 8.546875-2.910156l40.863281-54.476563 41.878907 69.796875c1.445312 2.40625 4.046874 3.878906 6.855468 3.882813h.089844c2.832031-.027344 5.4375-1.546875 6.855469-4l128-224c2.003906-3.527344 1.054687-7.996094-2.214844-10.402344-3.265625-2.402344-7.816406-1.980469-10.585937.984375zm-122.304687 213.601562-40.976563-68.289062c-1.359375-2.269531-3.753906-3.71875-6.398437-3.871094h-.457032c-2.515625 0-4.886718 1.183594-6.398437 3.199219l-35.679688 47.574219-5.601562-56.269532 63.519531-77.699218 49.839844 64.082031c1.445312 1.855469 3.628906 2.980469 5.976562 3.078125 2.347656.132812 4.628906-.804688 6.207032-2.542969l56.714843-61.078125zm0 0"/><path d="m317.476562 79.59375 48 16c.816407.277344 1.667969.417969 2.527344.417969 2.574219 0 4.988282-1.238281 6.492188-3.324219 1.503906-2.082031 1.914062-4.765625 1.101562-7.207031l-3.800781-11.390625 34.886719 5.808594c3.769531.625 7.457031-1.496094 8.800781-5.074219l24-64c1.332031-3.527344.019531-7.507813-3.152344-9.550781-3.167969-2.042969-7.335937-1.589844-10 1.082031l-35.078125 35.09375-26.449218-19.839844c-3.40625-2.554687-8.214844-1.996094-10.945313 1.273437l-40 48c-1.691406 2.03125-2.269531 4.765626-1.546875 7.308594.722656 2.546875 2.65625 4.566406 5.164062 5.402344zm43.808594-44.625 25.917969 19.441406c3.1875 2.386719 7.644531 2.070313 10.457031-.742187l13.890625-13.882813-8.722656 23.25-41.503906-6.914062c-2.765625-.445313-5.566407.574218-7.398438 2.695312-1.824219 2.132813-2.394531 5.0625-1.511719 7.722656l2.941407 8.800782-21.703125-7.203125zm0 0"/><path d="m478.734375 107.683594c-2.027344-3.183594-6-4.515625-9.539063-3.203125l-64 24c-3.578124 1.34375-5.703124 5.03125-5.078124 8.800781l5.816406 34.898438-11.402344-3.792969c-2.871094-.957031-6.039062-.210938-8.179688 1.929687-2.144531 2.140625-2.894531 5.308594-1.9375 8.183594l16 48c.835938 2.507812 2.859376 4.445312 5.40625 5.167969.710938.210937 1.445313.328125 2.183594.34375 1.871094 0 3.683594-.652344 5.121094-1.847657l48-40c3.277344-2.730468 3.839844-7.546874 1.28125-10.953124l-19.839844-26.449219 35.09375-35.09375c2.664063-2.664063 3.109375-6.820313 1.074219-9.984375zm-33.6875 75.046875-33.160156 27.632812-7.203125-21.707031 8.800781 2.9375c2.65625.878906 5.582031.300781 7.707031-1.519531 2.125-1.816407 3.148438-4.613281 2.695313-7.375l-6.914063-41.511719 23.25-8.714844-13.882812 13.882813c-2.8125 2.816406-3.125 7.273437-.734375 10.453125zm0 0"/></svg>