<svg height="512" viewBox="0 0 256 256" width="512" xmlns="http://www.w3.org/2000/svg"><g fill="#f0c020"><path d="m247.169 221.649c-4.008-1.324-8.148-2.482-10.472-12.5-2.141 9.222-5.571 10.875-10.473 12.5 8 2.642 9.2 7.017 10.473 12.5 2.19-9.449 5.814-10.961 10.472-12.5z"/><path d="m216.794 130.487c-4.008-1.324-8.148-2.482-10.473-12.494-2.14 9.222-5.57 10.875-10.472 12.494 8 2.643 9.2 7.018 10.472 12.5 2.191-9.448 5.815-10.96 10.473-12.5z"/><path d="m252.5 130.487c-4.009-1.324-8.149-2.482-10.473-12.494-2.141 9.222-5.571 10.875-10.473 12.494 8 2.643 9.2 7.018 10.473 12.5 2.191-9.448 5.815-10.96 10.473-12.5z"/><path d="m229.67 178.566c-4.009-1.325-8.149-2.483-10.473-12.5-2.141 9.222-5.571 10.875-10.473 12.5 8 2.642 9.2 7.017 10.473 12.5 2.191-9.448 5.815-10.961 10.473-12.5z"/><path d="m229.67 73.992c-4.009-1.324-8.149-2.482-10.473-12.5-2.141 9.222-5.571 10.875-10.473 12.5 8 2.642 9.2 7.017 10.473 12.495 2.191-9.443 5.815-10.956 10.473-12.495z"/><path d="m183.794 51.16c-4.009-1.325-8.149-2.482-10.473-12.495-2.141 9.222-5.571 10.875-10.473 12.495 8 2.642 9.2 7.017 10.473 12.5 2.191-9.448 5.815-10.96 10.473-12.5z"/><path d="m247.169 34.351c-4.008-1.325-8.148-2.483-10.472-12.495-2.141 9.222-5.571 10.875-10.473 12.495 8 2.642 9.2 7.017 10.473 12.495 2.19-9.446 5.814-10.956 10.472-12.495z"/><path d="m183.794 207.231c-4.009-1.325-8.149-2.482-10.473-12.5-2.141 9.222-5.571 10.875-10.473 12.5 8 2.642 9.2 7.017 10.473 12.5 2.191-9.448 5.815-10.961 10.473-12.5z"/><path d="m166.6 113.478h-6.872v34.022h6.872a17.009 17.009 0 0 0 0-34.018z"/></g><path d="m83.36 100.724h24.857v59.527h-24.857z" fill="#fc5d3d" transform="matrix(-1 0 0 -1 191.577 260.975)"/><path d="m139.45 82.42v96.14l-31.23-18.31v-59.53z" fill="#878787"/><path d="m149.59 66.38a10.14 10.14 0 0 0 -10.14 10.14v107.93a10.14 10.14 0 1 0 20.28 0v-107.93a10.14 10.14 0 0 0 -10.14-10.14z" fill="#fc5d3d"/><path d="m108.222 115.21a2.5 2.5 0 0 1 -1.137-4.728l17.114-8.714a2.5 2.5 0 0 1 2.269 4.455l-17.114 8.715a2.485 2.485 0 0 1 -1.132.272z" fill="#afafaf"/><path d="m108.22 115.21h-24.86a2.5 2.5 0 0 1 0-5h24.86a2.5 2.5 0 0 1 0 5z" fill="#ffcbc2"/><path d="m83.36 115.21h-23.741a2.5 2.5 0 0 1 0-5h23.741a2.5 2.5 0 0 1 0 5z" fill="#c5e5ff"/><path d="m34.03 100.72a13.091 13.091 0 0 0 -12.78 10.26 13.265 13.265 0 0 0 -.31 2.83v33.36a13.081 13.081 0 0 0 13.09 13.08h49.33v-59.53z" fill="#72c1e8"/><path d="m20.94 147.17a13.194 13.194 0 0 0 .31 2.83h-11.21a6.542 6.542 0 0 1 -6.54-6.54v-25.94a6.536 6.536 0 0 1 6.54-6.54h11.21a13.265 13.265 0 0 0 -.31 2.83z" fill="#fc5d3d"/><path d="m68.69 213.89h-12.28a6.553 6.553 0 0 1 -6.48-5.58l-7.11-48.06h25.52l6.83 46.15a6.545 6.545 0 0 1 -6.48 7.49z" fill="#fc5d3d"/><path d="m181.794 94.023a2.5 2.5 0 0 0 3.388-1.01l12.866-23.806a2.5 2.5 0 0 0 -4.4-2.377l-12.864 23.806a2.5 2.5 0 0 0 1.01 3.387z"/><path d="m185.806 171.7a2.5 2.5 0 1 0 -4.4 2.377l12.865 23.807a2.5 2.5 0 1 0 4.4-2.377z"/><path d="m220.771 151.322a2.5 2.5 0 0 0 .216 3.53l14.054 12.426a2.5 2.5 0 1 0 3.312-3.746l-14.053-12.432a2.5 2.5 0 0 0 -3.529.222z"/><path d="m238.569 93.913a2.5 2.5 0 0 0 -3.528-.216l-14.054 12.427a2.5 2.5 0 1 0 3.313 3.745l14.053-12.427a2.5 2.5 0 0 0 .216-3.529z"/><path d="m247.954 219.275c-3.826-1.261-6.823-2.075-8.822-10.686a2.5 2.5 0 0 0 -4.87 0c-1.955 8.417-4.835 9.369-8.823 10.686a2.5 2.5 0 0 0 0 4.747c6.87 2.27 7.646 5.619 8.822 10.687a2.5 2.5 0 0 0 4.871 0c1.952-8.416 4.834-9.368 8.822-10.687a2.5 2.5 0 0 0 0-4.747zm-11.2 7.29a13.883 13.883 0 0 0 -4.567-4.855 13.291 13.291 0 0 0 4.52-5.1 13.648 13.648 0 0 0 4.371 5.066 13.249 13.249 0 0 0 -4.325 4.889z"/><path d="m208.757 143.547c1.952-8.416 4.834-9.368 8.822-10.686a2.5 2.5 0 0 0 0-4.748c-3.851-1.262-6.83-2.105-8.823-10.686a2.5 2.5 0 0 0 -4.87 0c-1.954 8.418-4.835 9.369-8.822 10.686a2.5 2.5 0 0 0 0 4.748c6.87 2.27 7.646 5.618 8.822 10.686a2.5 2.5 0 0 0 4.871 0zm-6.946-13a13.276 13.276 0 0 0 4.52-5.1 13.66 13.66 0 0 0 4.371 5.067 13.238 13.238 0 0 0 -4.324 4.889 13.891 13.891 0 0 0 -4.567-4.855z"/><path d="m253.284 128.113c-3.851-1.262-6.829-2.105-8.822-10.686a2.5 2.5 0 0 0 -4.87 0c-1.954 8.418-4.835 9.369-8.822 10.686a2.5 2.5 0 0 0 0 4.748c6.87 2.27 7.646 5.618 8.821 10.686a2.5 2.5 0 0 0 4.871 0c1.953-8.416 4.834-9.368 8.823-10.686a2.5 2.5 0 0 0 0-4.748zm-11.2 7.29a13.873 13.873 0 0 0 -4.567-4.855 13.278 13.278 0 0 0 4.521-5.1 13.65 13.65 0 0 0 4.37 5.067 13.255 13.255 0 0 0 -4.325 4.885z"/><path d="m230.454 180.939a2.5 2.5 0 0 0 0-4.747c-3.82-1.261-6.822-2.068-8.823-10.687a2.5 2.5 0 0 0 -4.87 0c-1.954 8.417-4.835 9.37-8.823 10.687a2.5 2.5 0 0 0 0 4.748c6.869 2.269 7.646 5.618 8.822 10.685a2.5 2.5 0 0 0 4.871 0c1.954-8.416 4.835-9.368 8.823-10.686zm-11.2 2.542a13.873 13.873 0 0 0 -4.567-4.855 13.285 13.285 0 0 0 4.521-5.1 13.65 13.65 0 0 0 4.37 5.067 13.255 13.255 0 0 0 -4.325 4.888z"/><path d="m207.94 76.366c6.869 2.27 7.646 5.618 8.822 10.686a2.5 2.5 0 0 0 4.871 0c1.952-8.416 4.833-9.368 8.821-10.686a2.5 2.5 0 0 0 0-4.747c-3.82-1.262-6.822-2.068-8.823-10.687a2.5 2.5 0 0 0 -4.87 0c-1.954 8.418-4.835 9.369-8.822 10.686a2.5 2.5 0 0 0 0 4.748zm11.267-7.414a13.646 13.646 0 0 0 4.37 5.066 13.267 13.267 0 0 0 -4.324 4.89 13.856 13.856 0 0 0 -4.567-4.855 13.27 13.27 0 0 0 4.521-5.101z"/><path d="m162.064 53.534c6.869 2.27 7.646 5.618 8.822 10.686a2.5 2.5 0 0 0 4.871 0c1.952-8.416 4.833-9.368 8.821-10.686a2.5 2.5 0 0 0 0-4.747c-3.82-1.262-6.822-2.068-8.823-10.687a2.5 2.5 0 0 0 -4.87 0c-1.954 8.417-4.835 9.369-8.823 10.687a2.5 2.5 0 0 0 0 4.747zm11.267-7.414a13.646 13.646 0 0 0 4.37 5.066 13.267 13.267 0 0 0 -4.324 4.89 13.865 13.865 0 0 0 -4.567-4.855 13.285 13.285 0 0 0 4.521-5.101z"/><path d="m225.439 36.725c6.87 2.27 7.646 5.618 8.822 10.686a2.5 2.5 0 0 0 4.871 0c1.952-8.416 4.834-9.369 8.822-10.686a2.5 2.5 0 0 0 0-4.747c-3.82-1.262-6.821-2.068-8.822-10.687a2.5 2.5 0 0 0 -4.87 0c-1.954 8.417-4.836 9.369-8.823 10.687a2.5 2.5 0 0 0 0 4.747zm11.267-7.414a13.656 13.656 0 0 0 4.371 5.066 13.241 13.241 0 0 0 -4.324 4.89 13.875 13.875 0 0 0 -4.567-4.855 13.291 13.291 0 0 0 4.52-5.101z"/><path d="m184.579 204.857c-3.82-1.261-6.822-2.067-8.823-10.686a2.5 2.5 0 0 0 -4.87 0c-1.954 8.417-4.835 9.369-8.822 10.686a2.5 2.5 0 0 0 0 4.747c6.869 2.271 7.646 5.619 8.822 10.687a2.5 2.5 0 0 0 4.871 0c1.952-8.416 4.833-9.369 8.821-10.687a2.5 2.5 0 0 0 0-4.747zm-11.2 7.289a13.862 13.862 0 0 0 -4.567-4.854 13.277 13.277 0 0 0 4.521-5.1 13.654 13.654 0 0 0 4.37 5.066 13.271 13.271 0 0 0 -4.326 4.888z"/><path d="m47.9 194.56a2.5 2.5 0 0 0 2.1-2.84 2.531 2.531 0 0 0 -2.84-2.11 2.5 2.5 0 0 0 .74 4.95z"/><path d="m162.23 180.79a2.5 2.5 0 0 0 -5 0v3.66a7.64 7.64 0 0 1 -15.28 0v-107.93a7.64 7.64 0 1 1 15.28 0v84.27a2.5 2.5 0 0 0 5 0v-10.79h4.37a19.509 19.509 0 0 0 0-39.018h-4.37v-34.462a12.64 12.64 0 1 0 -25.28 0v4.464l-29.408 17.236h-73.512a15.545 15.545 0 0 0 -14.63 10.26h-9.36a9.05 9.05 0 0 0 -9.04 9.04v25.94a9.05 9.05 0 0 0 9.04 9.04h9.36a15.556 15.556 0 0 0 14.63 10.25h6.634l2.926 19.81a2.5 2.5 0 1 0 4.95-.73l-2.82-19.08h20.46l6.52 44.02a4.05 4.05 0 0 1 -4.01 4.62h-12.28a4.08 4.08 0 0 1 -4.01-3.45l-.93-6.33a2.522 2.522 0 0 0 -2.84-2.1 2.491 2.491 0 0 0 -2.11 2.83l.94 6.34a9.056 9.056 0 0 0 8.95 7.71h12.28a9.053 9.053 0 0 0 8.95-10.35l-6.405-43.29h36.306l29.409 17.25v4.454a12.64 12.64 0 1 0 25.28 0zm0-64.812h4.37a14.509 14.509 0 0 1 0 29.018h-4.373zm-152.19 31.522a4.045 4.045 0 0 1 -4.04-4.04v-25.94a4.045 4.045 0 0 1 4.04-4.04h8.4c-.006.3 0 33.842 0 34.02zm23.98 10.25a10.618 10.618 0 0 1 -10.335-8.35c-.348-1.492-.245.613-.245-35.592a10.559 10.559 0 0 1 10.59-10.59h46.83v30.85a2.5 2.5 0 0 0 5 0v-30.848h19.86v54.53h-19.86v-3.68a2.5 2.5 0 0 0 -5 0v3.68zm76.7 1.068v-56.666l26.23-15.373v87.421z"/><circle cx="159.73" cy="170.79" r="2.5"/><path d="m41.658 115.886h-2.616a2.5 2.5 0 0 0 0 5h2.616a2.5 2.5 0 0 0 0-5z"/><path d="m41.658 127.987h-2.616a2.5 2.5 0 0 0 0 5h2.616a2.5 2.5 0 0 0 0-5z"/><path d="m41.658 140.089h-2.616a2.5 2.5 0 0 0 0 5h2.616a2.5 2.5 0 1 0 0-5z"/><circle cx="83.36" cy="144.07" r="2.5"/></svg>