<svg height="512pt" viewBox="0 0 512 512" width="512pt" xmlns="http://www.w3.org/2000/svg"><path d="m512 256c0 141.386719-114.613281 256-256 256s-256-114.613281-256-256 114.613281-256 256-256 256 114.613281 256 256zm0 0" fill="#ef3a50"/><path d="m280.171875 40.953125c7.839844 13.875 26.1875 17.527344 38.742187 7.707031 15.964844-12.496094 39.457032-2.765625 41.914063 17.359375 1.929687 15.820313 17.484375 26.214844 32.839844 21.945313 19.535156-5.433594 37.511719 12.546875 32.082031 32.082031-4.269531 15.351563 6.121094 30.910156 21.941406 32.839844 20.125 2.457031 29.855469 25.945312 17.363282 41.914062-9.820313 12.550781-6.171876 30.902344 7.707031 38.738281 17.652343 9.972657 17.652343 35.398438 0 45.371094-13.878907 7.835938-17.527344 26.183594-7.707031 38.738282 12.492187 15.964843 2.765624 39.457031-17.363282 41.914062-15.820312 1.929688-26.210937 17.484375-21.941406 32.839844 5.429688 19.535156-12.546875 37.511718-32.082031 32.082031-15.355469-4.269531-30.910157 6.125-32.839844 21.941406-2.457031 20.125-25.949219 29.855469-41.914063 17.363281-12.554687-9.820312-30.902343-6.171874-38.742187 7.707032-9.96875 17.652344-35.394531 17.652344-45.367187 0-7.835938-13.878906-26.1875-17.527344-38.738282-7.707032-15.96875 12.496094-39.457031 2.765626-41.914062-17.363281-1.929688-15.816406-17.488282-26.210937-32.839844-21.941406-19.535156 5.429687-37.515625-12.546875-32.082031-32.082031 4.269531-15.355469-6.125-30.910156-21.945313-32.839844-20.125-2.457031-29.855468-25.949219-17.359375-41.914062 9.820313-12.554688 6.167969-30.902344-7.707031-38.738282-17.652344-9.972656-17.652344-35.398437 0-45.371094 13.875-7.835937 17.527344-26.1875 7.707031-38.738281-12.496093-15.96875-2.765625-39.457031 17.359375-41.914062 15.820313-1.929688 26.214844-17.488281 21.945313-32.839844-5.433594-19.535156 12.546875-37.511719 32.082031-32.082031 15.351562 4.269531 30.910156-6.125 32.839844-21.945313 2.457031-20.125 25.945312-29.855469 41.914062-17.359375 12.550782 9.820313 30.902344 6.167969 38.738282-7.707031 9.972656-17.652344 35.398437-17.652344 45.367187 0zm0 0" fill="#fdd33a"/><path d="m85.578125 256.222656c0-86.953125 47.058594-162.902344 117.09375-203.800781-2.3125-.902344-4.539063-2.148437-6.605469-3.765625-15.96875-12.492188-39.457031-2.761719-41.914062 17.363281-1.929688 15.820313-17.488282 26.214844-32.839844 21.945313-19.535156-5.433594-37.515625 12.546875-32.082031 32.078125 4.269531 15.355469-6.125 30.910156-21.945313 32.84375-20.125 2.457031-29.855468 25.945312-17.359375 41.914062 9.820313 12.550781 6.167969 30.898438-7.707031 38.738281-17.652344 9.972657-17.652344 35.398438 0 45.367188 13.875 7.839844 17.523438 26.1875 7.707031 38.738281-12.496093 15.96875-2.765625 39.460938 17.359375 41.917969 15.820313 1.929688 26.214844 17.484375 21.945313 32.839844-5.433594 19.53125 12.546875 37.511718 32.082031 32.082031 15.351562-4.269531 30.910156 6.121094 32.839844 21.941406 2.457031 20.125 25.945312 29.855469 41.914062 17.363281 2.066406-1.621093 4.292969-2.863281 6.605469-3.765624-70.035156-40.898438-117.09375-116.851563-117.09375-203.800782zm0 0" fill="#e0af24"/><g fill="#50309e"><path d="m193.4375 314.933594c0 .367187-.03125.707031-.089844 1.011718v.1875c-.554687 2.761719-2.058594 4.757813-4.515625 5.988282-2.152343 1.105468-4.332031 1.289062-6.542969.554687-2.269531-.738281-3.960937-2.152343-5.066406-4.238281l-42.835937-85.863281v81.898437c0 2.398438-.828125 4.425782-2.488281 6.082032-1.71875 1.71875-3.746094 2.578124-6.078126 2.578124-2.398437 0-4.453124-.859374-6.171874-2.578124-1.660157-1.65625-2.488282-3.683594-2.488282-6.082032v-118.472656c0-2.394531.828125-4.421875 2.488282-6.078125 1.71875-1.71875 3.777343-2.582031 6.171874-2.582031 2.699219 0 4.941407 1.105468 6.722657 3.316406v.09375c.246093.246094.460937.582031.644531 1.011719.0625 0 .125.03125.1875.09375 0 .121093.027344.183593.089844.183593l42.839844 85.859376v-81.898438c0-2.394531.828124-4.421875 2.484374-6.082031 1.660157-1.71875 3.6875-2.578125 6.082032-2.578125 2.394531 0 4.421875.859375 6.078125 2.578125 1.71875 1.660156 2.582031 3.6875 2.582031 6.082031v118.472656c0-.183594 0-.277344 0-.277344s-.035156.246094-.09375.738282zm0 0"/><path d="m267.875 305.90625c2.394531 0 4.421875.828125 6.078125 2.484375 1.71875 1.722656 2.582031 3.75 2.582031 6.082031 0 2.394532-.863281 4.453125-2.582031 6.171875-1.65625 1.660157-3.683594 2.488281-6.078125 2.488281h-45.417969c-2.394531 0-4.453125-.828124-6.171875-2.488281-1.660156-1.71875-2.488281-3.777343-2.488281-6.171875v-115.246094c0-2.335937.828125-4.363281 2.488281-6.082031 1.71875-1.65625 3.777344-2.484375 6.171875-2.484375h45.417969c2.394531 0 4.421875.828125 6.078125 2.484375 1.71875 1.71875 2.582031 3.746094 2.582031 6.082031 0 2.394532-.863281 4.417969-2.582031 6.078126-1.65625 1.71875-3.683594 2.578124-6.078125 2.578124h-36.851562v35.746094h31.324218c2.394532 0 4.453125.828125 6.171875 2.488282 1.65625 1.65625 2.484375 3.683593 2.484375 6.078124 0 2.394532-.828125 4.421876-2.484375 6.082032-1.722656 1.71875-3.777343 2.578125-6.171875 2.578125h-31.324218v45.050781zm0 0"/><path d="m406.0625 197.289062c-13.207031 79.472657-19.839844 119.300782-19.902344 119.488282-.675781 2.394531-2.179687 4.175781-4.511718 5.339844-2.089844 1.105468-4.269532 1.292968-6.542969.554687-2.269531-.738281-3.960938-2.148437-5.066407-4.238281l-22.476562-44.128906c-15.109375 29.480468-22.726562 44.3125-22.847656 44.496093-1.414063 2.335938-3.410156 3.71875-5.988282 4.148438-2.332031.425781-4.484374-.03125-6.449218-1.382813-1.902344-1.410156-3.070313-3.285156-3.5-5.621094l-19.714844-118.65625c-.367188-2.332031.125-4.480468 1.472656-6.449218 1.414063-1.902344 3.285156-3.070313 5.621094-3.496094 2.332031-.371094 4.484375.121094 6.449219 1.472656 1.902343 1.351563 3.070312 3.222656 3.5 5.617188l15.386719 93.140625 18.425781-36.207031c1.59375-3.128907 4.144531-4.699219 7.644531-4.699219s6.046875 1.570312 7.644531 4.699219l18.519531 36.207031 15.292969-93.140625c.429688-2.394532 1.597657-4.265625 3.5-5.617188 1.964844-1.351562 4.113281-1.84375 6.449219-1.472656 2.332031.425781 4.207031 1.597656 5.617188 3.496094 1.351562 1.96875 1.84375 4.117187 1.476562 6.449218zm0 0"/></g></svg>