<?xml version="1.0" encoding="iso-8859-1"?>
<!-- Generator: Adobe Illustrator 19.0.0, SVG Export Plug-In . SVG Version: 6.00 Build 0)  -->
<svg version="1.1" id="Capa_1" xmlns="http://www.w3.org/2000/svg" xmlns:xlink="http://www.w3.org/1999/xlink" x="0px" y="0px"
	 viewBox="0 0 512 512" style="enable-background:new 0 0 512 512;" xml:space="preserve">
<polyline style="fill:#F1F2F2;" points="126.84,291.951 126.84,430.135 196.494,430.135 172.901,389.594 172.901,312.735 "/>
<polygon style="fill:#69D2F7;" points="126.84,291.951 344.794,369.468 344.794,81.867 126.84,159.384 "/>
<polygon style="fill:#4AA7ED;" points="286.566,348.759 344.794,369.468 344.794,81.867 286.566,102.576 "/>
<path style="fill:#6D6FAB;" d="M126.84,159.384h-57.83c-32.59,0-59.009,26.419-59.009,59.009v14.549
	c0,32.59,26.419,59.009,59.009,59.009h57.83V159.384z"/>
<path d="M350.56,73.694c-2.656-1.874-6.057-2.341-9.117-1.251l-216.329,76.94H69.011C30.958,149.383,0,180.341,0,218.393v14.548
	c0,38.053,30.958,69.011,69.011,69.011h47.827v128.183c0,5.524,4.479,10.002,10.002,10.002h69.655c3.58,0,6.886-1.913,8.67-5.016
	c1.784-3.103,1.774-6.923-0.026-10.017l-22.234-38.209v-64.391l158.54,56.387c1.09,0.388,2.223,0.578,3.351,0.578
	c2.038,0,4.059-0.623,5.768-1.83c2.655-1.874,4.235-4.922,4.235-8.171V81.866C354.795,78.616,353.216,75.568,350.56,73.694z
	 M20.003,232.942v-14.548c0-27.023,21.984-49.007,49.007-49.007h47.827v112.563H98.679v-48.622c0-5.524-4.479-10.002-10.002-10.002
	c-5.523,0-10.002,4.478-10.002,10.002v48.622h-9.665C41.987,281.949,20.003,259.965,20.003,232.942z M162.9,379.592h-9.658
	c-5.523,0-10.002,4.478-10.002,10.001c0,5.524,4.479,10.002,10.002,10.002h13.909l11.951,20.538h-42.26v-114.01l26.059,9.268
	V379.592z M334.792,355.296l-38.279-13.614v-70.821c0-5.524-4.479-10.002-10.002-10.002c-5.523,0-10.002,4.478-10.002,10.002v63.707
	l-139.669-49.676v-118.45l139.668-49.675v82.373c0,5.524,4.479,10.002,10.002,10.002c5.523,0,10.002-4.478,10.002-10.002v-89.488
	l38.279-13.614L334.792,355.296L334.792,355.296z"/>
<path d="M463.083,107.38c-3.907-3.906-10.238-3.906-14.145,0c-3.906,3.906-3.906,10.239,0,14.145
	c27.818,27.817,43.138,64.803,43.138,104.143s-15.319,76.326-43.138,104.143c-3.906,3.906-3.906,10.239,0,14.145
	c1.953,1.953,4.513,2.929,7.072,2.929s5.119-0.976,7.072-2.929C528.307,278.731,528.307,172.603,463.083,107.38z"/>
<path d="M431.306,139.156c-3.906-3.906-10.237-3.906-14.145,0c-3.906,3.906-3.906,10.239,0,14.144
	c39.903,39.904,39.903,104.831,0,144.735c-3.906,3.906-3.906,10.239,0,14.144c1.953,1.953,4.513,2.929,7.072,2.929
	c2.559,0,5.119-0.977,7.072-2.929C479.008,264.476,479.008,186.859,431.306,139.156z"/>
<path d="M399.531,170.932c-3.906-3.906-10.237-3.906-14.145,0c-3.906,3.906-3.906,10.239,0,14.144
	c22.382,22.382,22.382,58.801,0,81.183c-3.906,3.906-3.906,10.239,0,14.144c1.953,1.953,4.513,2.929,7.072,2.929
	s5.119-0.977,7.072-2.929C429.711,250.221,429.711,201.113,399.531,170.932z"/>
<path d="M286.513,225.484c-5.523,0-10.002,4.478-10.002,10.002v0.147c0,5.524,4.479,10.002,10.002,10.002
	c5.523,0,10.002-4.478,10.002-10.002v-0.147C296.514,229.962,292.035,225.484,286.513,225.484z"/>
<path d="M88.677,206.983c5.523,0,10.002-4.478,10.002-10.002v-0.147c0-5.524-4.479-10.002-10.002-10.002
	c-5.523,0-10.002,4.478-10.002,10.002v0.147C78.675,202.505,83.154,206.983,88.677,206.983z"/>
<g>
</g>
<g>
</g>
<g>
</g>
<g>
</g>
<g>
</g>
<g>
</g>
<g>
</g>
<g>
</g>
<g>
</g>
<g>
</g>
<g>
</g>
<g>
</g>
<g>
</g>
<g>
</g>
<g>
</g>
</svg>
