<svg height="452pt" viewBox="-13 0 452 452.066" width="452pt" xmlns="http://www.w3.org/2000/svg"><path d="m52.296875 423.921875h56.390625v25.140625h-56.390625zm0 0" fill="#87796f"/><path d="m108.6875 452.066406h-56.390625c-1.65625 0-3-1.34375-3-3v-25.144531c0-1.65625 1.34375-3 3-3h56.390625c1.65625 0 3 1.34375 3 3v25.144531c0 1.65625-1.34375 3-3 3zm-53.390625-6h50.390625v-19.144531h-50.390625zm0 0" fill="#3a312a"/><path d="m317.90625 423.921875h56.390625v25.140625h-56.390625zm0 0" fill="#87796f"/><path d="m374.296875 452.066406h-56.390625c-1.65625 0-3-1.34375-3-3v-25.144531c0-1.65625 1.34375-3 3-3h56.390625c1.65625 0 3 1.34375 3 3v25.144531c0 1.65625-1.34375 3-3 3zm-53.390625-6h50.390625v-19.144531h-50.390625zm0 0" fill="#3a312a"/><path d="m180.238281 424h212.8125c16.851563 0 30.511719-13.660156 30.511719-30.511719v-339.976562c0-16.851563-13.664062-30.511719-30.511719-30.511719h-359.503906c-16.855469 0-30.515625 13.660156-30.515625 30.511719v339.976562c0 16.851563 13.660156 30.511719 30.515625 30.511719zm0 0" fill="#fce8cb"/><path d="m393.050781 426.996094h-212.8125c-1.65625 0-3-1.34375-3-3 0-1.652344 1.34375-3 3-3h212.8125c15.167969 0 27.511719-12.339844 27.511719-27.511719v-339.972656c0-15.167969-12.34375-27.511719-27.511719-27.511719h-359.503906c-15.171875 0-27.515625 12.34375-27.515625 27.511719v339.976562c0 15.167969 12.34375 27.511719 27.515625 27.511719h119.472656c1.660157 0 3 1.34375 3 3s-1.339843 3-3 3h-119.472656c-18.480469 0-33.515625-15.035156-33.515625-33.511719v-339.976562c0-18.476563 15.035156-33.511719 33.515625-33.511719h359.503906c18.476563 0 33.511719 15.035156 33.511719 33.511719v339.976562c0 18.476563-15.035156 33.507813-33.511719 33.507813zm0 0" fill="#3a312a"/><path d="m315.527344 352.25h108.035156v-252.5h-420.53125v252.5zm0 0" fill="#89c4db"/><path d="m423.5625 355.246094h-108.035156c-1.65625 0-3-1.34375-3-3 0-1.652344 1.34375-3 3-3h105.035156v-246.5h-414.53125v246.5h282.367188c1.660156 0 3 1.347656 3 3 0 1.65625-1.339844 3-3 3h-285.367188c-1.65625 0-3-1.34375-3-3v-252.5c0-1.65625 1.34375-3 3-3h420.53125c1.65625 0 3 1.34375 3 3v252.5c0 1.65625-1.34375 3-3 3zm0 0" fill="#3a312a"/><path d="m55.078125 298.984375v-145.96875c0-12.160156 9.855469-22.019531 22.015625-22.019531h272.40625c12.160156 0 22.015625 9.859375 22.015625 22.019531v145.964844c0 12.160156-9.855469 22.015625-22.015625 22.015625h-272.40625c-12.160156.003906-22.015625-9.855469-22.015625-22.011719zm0 0" fill="#87796f"/><path d="m349.5 323.996094h-272.40625c-13.792969 0-25.015625-11.21875-25.015625-25.015625v-145.964844c0-13.792969 11.222656-25.015625 25.015625-25.015625h272.40625c13.792969 0 25.015625 11.222656 25.015625 25.015625v145.964844c0 13.796875-11.21875 25.015625-25.015625 25.015625zm-272.40625-189.996094c-10.488281 0-19.015625 8.53125-19.015625 19.015625v145.964844c0 10.484375 8.527344 19.015625 19.015625 19.015625h272.40625c10.484375 0 19.015625-8.53125 19.015625-19.015625v-145.964844c0-10.484375-8.53125-19.015625-19.015625-19.015625zm0 0" fill="#3a312a"/><path d="m174.992188 131h76.609374c0 9.941406-8.054687 18-18 18h-40.609374c-9.941407 0-18-8.058594-18-18zm0 0" fill="#d5de58"/><path d="m233.601562 152h-40.609374c-11.582032 0-21-9.421875-21-21 0-1.65625 1.339843-3 3-3h76.609374c1.65625 0 3 1.34375 3 3 0 11.578125-9.421874 21-21 21zm-55.304687-18c1.390625 6.839844 7.453125 12 14.695313 12h40.609374c7.246094 0 13.304688-5.160156 14.699219-12zm0 0" fill="#3a312a"/><path d="m58.796875 11.746094v11.253906h118v-11.253906c0-4.832032-3.917969-8.746094-8.746094-8.746094h-100.503906c-4.832031 0-8.75 3.914062-8.75 8.746094zm0 0" fill="#87796f"/><path d="m176.796875 26h-118c-1.65625 0-3-1.34375-3-3v-11.253906c0-6.476563 5.269531-11.746094 11.75-11.746094h100.503906c6.476563 0 11.746094 5.269531 11.746094 11.746094v11.253906c0 1.65625-1.34375 3-3 3zm-115-6h112v-8.253906c0-3.167969-2.578125-5.746094-5.746094-5.746094h-100.503906c-3.167969 0-5.75 2.578125-5.75 5.746094zm0 0" fill="#3a312a"/><path d="m249.796875 11.746094v11.253906h118v-11.253906c0-4.832032-3.914063-8.746094-8.746094-8.746094h-100.503906c-4.832031 0-8.75 3.914062-8.75 8.746094zm0 0" fill="#87796f"/><path d="m367.796875 26h-118c-1.65625 0-3-1.34375-3-3v-11.253906c0-6.476563 5.269531-11.746094 11.75-11.746094h100.5c6.476563 0 11.75 5.269531 11.75 11.746094v11.253906c0 1.65625-1.34375 3-3 3zm-115-6h112v-8.253906c0-3.167969-2.578125-5.746094-5.746094-5.746094h-100.503906c-3.167969 0-5.746094 2.578125-5.746094 5.746094v8.253906zm0 0" fill="#3a312a"/><path d="m100.628906 61.1875c0 13.539062-10.976562 24.519531-24.519531 24.519531s-24.519531-10.980469-24.519531-24.519531c0-13.542969 10.976562-24.523438 24.519531-24.523438s24.519531 10.980469 24.519531 24.523438zm0 0" fill="#d6df58"/><path d="m76.109375 88.707031c-15.175781 0-27.519531-12.34375-27.519531-27.519531s12.34375-27.523438 27.519531-27.523438c15.171875 0 27.519531 12.347657 27.519531 27.523438s-12.34375 27.519531-27.519531 27.519531zm0-49.042969c-11.867187 0-21.519531 9.65625-21.519531 21.523438s9.652344 21.519531 21.519531 21.519531 21.519531-9.652343 21.519531-21.519531-9.652344-21.523438-21.519531-21.523438zm0 0" fill="#3a312a"/><path d="m76.109375 77.707031c-2.695313 0-4.882813-2.183593-4.882813-4.882812v-23.277344c0-2.695313 2.1875-4.882813 4.882813-4.882813s4.882813 2.1875 4.882813 4.882813v23.277344c0 2.699219-2.1875 4.882812-4.882813 4.882812zm0 0" fill="#ef6d7a"/><path d="m76.109375 80.707031c-4.347656 0-7.878906-3.535156-7.878906-7.882812v-23.277344c0-4.347656 3.535156-7.882813 7.878906-7.882813s7.878906 3.539063 7.878906 7.882813v23.277344c.003907 4.347656-3.535156 7.882812-7.878906 7.882812zm0-33.042969c-1.039063 0-1.878906.847657-1.878906 1.882813v23.277344c0 1.039062.84375 1.882812 1.878906 1.882812 1.039063 0 1.878906-.84375 1.878906-1.882812v-23.277344c.003907-1.035156-.839843-1.882813-1.878906-1.882813zm0 0" fill="#3a312a"/><path d="m194.628906 61.1875c0 13.539062-10.976562 24.519531-24.519531 24.519531s-24.519531-10.980469-24.519531-24.519531c0-13.542969 10.976562-24.523438 24.519531-24.523438s24.519531 10.980469 24.519531 24.523438zm0 0" fill="#d6df58"/><path d="m170.109375 88.707031c-15.175781 0-27.519531-12.34375-27.519531-27.519531s12.34375-27.523438 27.519531-27.523438c15.171875 0 27.519531 12.347657 27.519531 27.523438.003906 15.175781-12.34375 27.519531-27.519531 27.519531zm0-49.042969c-11.867187 0-21.519531 9.65625-21.519531 21.523438s9.652344 21.519531 21.519531 21.519531 21.519531-9.652343 21.519531-21.519531-9.652344-21.523438-21.519531-21.523438zm0 0" fill="#3a312a"/><path d="m170.109375 77.707031c-2.695313 0-4.878906-2.183593-4.878906-4.882812v-23.277344c0-2.695313 2.183593-4.882813 4.878906-4.882813s4.882813 2.1875 4.882813 4.882813v23.277344c0 2.699219-2.1875 4.882812-4.882813 4.882812zm0 0" fill="#ef6d7a"/><path d="m170.109375 80.707031c-4.347656 0-7.878906-3.535156-7.878906-7.882812v-23.277344c0-4.347656 3.535156-7.882813 7.878906-7.882813s7.878906 3.539063 7.878906 7.882813v23.277344c.003907 4.347656-3.535156 7.882812-7.878906 7.882812zm0-33.042969c-1.035156 0-1.878906.847657-1.878906 1.882813v23.277344c0 1.039062.84375 1.882812 1.878906 1.882812 1.039063 0 1.882813-.84375 1.882813-1.882812v-23.277344c0-1.035156-.84375-1.882813-1.882813-1.882813zm0 0" fill="#3a312a"/><path d="m288.628906 61.1875c0 13.539062-10.976562 24.519531-24.519531 24.519531s-24.519531-10.980469-24.519531-24.519531c0-13.542969 10.976562-24.523438 24.519531-24.523438s24.519531 10.980469 24.519531 24.523438zm0 0" fill="#d6df58"/><path d="m264.109375 88.707031c-15.175781 0-27.519531-12.34375-27.519531-27.519531s12.34375-27.523438 27.519531-27.523438c15.171875 0 27.519531 12.347657 27.519531 27.523438.003906 15.175781-12.34375 27.519531-27.519531 27.519531zm0-49.042969c-11.867187 0-21.519531 9.65625-21.519531 21.523438s9.652344 21.519531 21.519531 21.519531 21.519531-9.652343 21.519531-21.519531c.003906-11.867188-9.652344-21.523438-21.519531-21.523438zm0 0" fill="#3a312a"/><path d="m264.109375 77.707031c-2.695313 0-4.882813-2.183593-4.882813-4.882812v-23.277344c0-2.695313 2.1875-4.882813 4.882813-4.882813s4.882813 2.1875 4.882813 4.882813v23.277344c0 2.699219-2.1875 4.882812-4.882813 4.882812zm0 0" fill="#ef6d7a"/><path d="m264.109375 80.707031c-4.347656 0-7.878906-3.535156-7.878906-7.882812v-23.277344c0-4.347656 3.535156-7.882813 7.878906-7.882813s7.878906 3.539063 7.878906 7.882813v23.277344c.003907 4.347656-3.535156 7.882812-7.878906 7.882812zm0-33.042969c-1.039063 0-1.878906.847657-1.878906 1.882813v23.277344c0 1.039062.84375 1.882812 1.878906 1.882812 1.039063 0 1.878906-.84375 1.878906-1.882812v-23.277344c.003907-1.035156-.839843-1.882813-1.878906-1.882813zm0 0" fill="#3a312a"/><path d="m382.628906 61.1875c0 13.539062-10.976562 24.519531-24.519531 24.519531s-24.519531-10.980469-24.519531-24.519531c0-13.542969 10.976562-24.523438 24.519531-24.523438s24.519531 10.980469 24.519531 24.523438zm0 0" fill="#d6df58"/><path d="m358.109375 88.707031c-15.175781 0-27.519531-12.34375-27.519531-27.519531s12.34375-27.523438 27.519531-27.523438c15.171875 0 27.519531 12.347657 27.519531 27.523438.003906 15.175781-12.34375 27.519531-27.519531 27.519531zm0-49.042969c-11.867187 0-21.519531 9.65625-21.519531 21.523438s9.652344 21.519531 21.519531 21.519531 21.519531-9.652343 21.519531-21.519531c.003906-11.867188-9.652344-21.523438-21.519531-21.523438zm0 0" fill="#3a312a"/><path d="m358.109375 77.707031c-2.695313 0-4.882813-2.183593-4.882813-4.882812v-23.277344c0-2.695313 2.1875-4.882813 4.882813-4.882813s4.882813 2.1875 4.882813 4.882813v23.277344c0 2.699219-2.1875 4.882812-4.882813 4.882812zm0 0" fill="#ef6d7a"/><path d="m358.109375 80.707031c-4.347656 0-7.878906-3.535156-7.878906-7.882812v-23.277344c0-4.347656 3.535156-7.882813 7.878906-7.882813s7.878906 3.539063 7.878906 7.882813v23.277344c.003907 4.347656-3.535156 7.882812-7.878906 7.882812zm0-33.042969c-1.039063 0-1.878906.847657-1.878906 1.882813v23.277344c0 1.039062.84375 1.882812 1.878906 1.882812 1.039063 0 1.878906-.84375 1.878906-1.882812v-23.277344c.003907-1.035156-.839843-1.882813-1.878906-1.882813zm0 0" fill="#3a312a"/><path d="m371.515625 296.371094h-316.4375c-1.660156 0-3-1.34375-3-3s1.339844-3 3-3h316.4375c1.660156 0 3 1.34375 3 3s-1.339844 3-3 3zm0 0" fill="#3a312a"/><path d="m213.296875 284.902344c-42.609375 0-77.152344-34.542969-77.152344-77.152344v-25.71875h154.304688v25.71875c0 42.609375-34.542969 77.152344-77.152344 77.152344zm0 0" fill="#ef6d7a"/><path d="m213.296875 287.902344c-44.195313 0-80.152344-35.957032-80.152344-80.152344v-25.71875c0-1.65625 1.34375-3 3-3h154.304688c1.65625 0 3 1.34375 3 3v25.71875c0 44.195312-35.957031 80.152344-80.152344 80.152344zm-74.152344-102.871094v22.71875c0 40.886719 33.265625 74.152344 74.152344 74.152344s74.152344-33.265625 74.152344-74.152344v-22.71875zm0 0" fill="#3a312a"/><path d="m180.773438 277.640625h65.351562v15.730469h-65.351562zm0 0" fill="#ef6d7a"/><path d="m246.125 296.371094h-65.351562c-1.660157 0-3-1.34375-3-3v-15.730469c0-1.65625 1.339843-3 3-3h65.351562c1.65625 0 3 1.34375 3 3v15.730469c0 1.65625-1.34375 3-3 3zm-62.355469-6h59.351563v-9.730469h-59.351563zm0 0" fill="#3a312a"/><path d="m393.058594 25.992188h-30c15.160156 0 27.5 12.339843 27.5 27.519531v43.242187h30v-43.242187c0-15.179688-12.339844-27.519531-27.5-27.519531zm0 0" fill="#decaad"/><path d="m420.558594 355.253906v38.238282c0 15.160156-12.339844 27.5-27.5 27.5h-30c15.160156 0 27.5-12.339844 27.5-27.5v-38.238282zm0 0" fill="#decaad"/><path d="m390.558594 102.753906v246.5h30v-246.5zm0 0" fill="#6ca8bf"/></svg>