<?xml version="1.0" encoding="iso-8859-1"?>
<!-- Generator: Adobe Illustrator 19.0.0, SVG Export Plug-In . SVG Version: 6.00 Build 0)  -->
<svg version="1.1" id="Capa_1" xmlns="http://www.w3.org/2000/svg" xmlns:xlink="http://www.w3.org/1999/xlink" x="0px" y="0px"
	 viewBox="0 0 512 512" style="enable-background:new 0 0 512 512;" xml:space="preserve">
<path style="fill:#F9D25B;" d="M429.249,272.394c-12.027-32.348-63.331-65.389-63.331-65.389s-51.339,32.945-63.352,65.361
	c-2.95,7.954-5.294,16.694-6.776,26.272h140.258C434.56,289.074,432.208,280.343,429.249,272.394z"/>
<g>
	<path style="fill:#F5C86E;" d="M296.036,297.102c-16.263,17.216-26.233,40.438-26.233,65.99c0,17.507,4.681,33.92,12.859,48.058
		c6.996-12.094,16.552-22.523,27.927-30.544"/>
	<path style="fill:#F5C86E;" d="M421.38,380.699c11.316,8.009,20.825,18.403,27.794,30.45c8.178-14.137,12.859-30.551,12.859-48.058
		c0-25.552-9.971-48.775-26.235-65.991"/>
</g>
<path d="M342.883,276.976h-4.356c-5.522,0-10-4.478-10-10s4.478-10,10-10h4.356c5.522,0,10,4.478,10,10
	S348.405,276.976,342.883,276.976z"/>
<path style="fill:#F74B4B;" d="M349.535,428.597c-18.343,7.13-31.439,25.891-31.439,47.912c0,9.286,2.329,17.992,6.398,25.491
	c8.269-15.239,23.723-25.491,41.425-25.491c17.701,0,33.156,10.252,41.425,25.491c4.069-7.499,6.398-16.205,6.398-25.491
	c0-21.976-13.042-40.704-31.326-47.868"/>
<path style="fill:#F9993A;" d="M294.013,322.298c0,69.232,71.906,119.89,71.906,119.89s71.906-49.909,71.906-119.89
	c0-8.4-0.633-16.278-1.781-23.659H295.785C294.643,306.019,294.013,313.896,294.013,322.298z"/>
<path d="M365.92,346.2c-0.65,0-1.311-0.07-1.96-0.2c-0.641-0.13-1.26-0.32-1.87-0.57c-0.6-0.25-1.18-0.56-1.72-0.92
	c-0.551-0.36-1.061-0.78-1.521-1.24s-0.88-0.97-1.25-1.52c-0.359-0.54-0.67-1.13-0.92-1.73c-0.24-0.6-0.439-1.229-0.57-1.87
	c-0.13-0.649-0.189-1.3-0.189-1.96c0-0.649,0.06-1.3,0.189-1.949c0.131-0.641,0.33-1.261,0.57-1.87
	c0.25-0.601,0.561-1.181,0.92-1.721c0.37-0.55,0.79-1.06,1.25-1.52c0.46-0.47,0.97-0.88,1.521-1.25c0.54-0.36,1.12-0.67,1.72-0.92
	c0.61-0.25,1.229-0.44,1.87-0.57c1.29-0.26,2.62-0.26,3.91,0c0.64,0.13,1.27,0.32,1.87,0.57c0.609,0.25,1.189,0.56,1.729,0.92
	c0.55,0.37,1.061,0.78,1.521,1.25c1.859,1.86,2.93,4.43,2.93,7.06c0,0.66-0.07,1.311-0.2,1.96c-0.13,0.641-0.32,1.271-0.57,1.87
	c-0.25,0.601-0.56,1.19-0.92,1.73c-0.359,0.55-0.779,1.06-1.239,1.52s-0.971,0.88-1.521,1.24c-0.54,0.36-1.12,0.67-1.729,0.92
	c-0.601,0.25-1.23,0.44-1.87,0.57C367.229,346.13,366.569,346.2,365.92,346.2z"/>
<rect x="88.977" y="306.5" style="fill:#8A898A;" width="71.971" height="195.5"/>
<circle style="fill:#AFFFF5;" cx="87.47" cy="269.01" r="37.498"/>
<path d="M124.96,474.47c-0.65,0-1.311-0.06-1.96-0.19c-0.63-0.13-1.26-0.319-1.87-0.569c-0.6-0.25-1.18-0.561-1.72-0.92
	c-0.551-0.37-1.061-0.79-1.521-1.25s-0.88-0.971-1.25-1.521c-0.359-0.54-0.67-1.12-0.92-1.72c-0.25-0.61-0.439-1.24-0.57-1.87
	c-0.13-0.65-0.189-1.31-0.189-1.96s0.06-1.31,0.189-1.95c0.131-0.64,0.32-1.27,0.57-1.87c0.25-0.609,0.561-1.189,0.92-1.729
	c0.37-0.55,0.79-1.061,1.25-1.521c1.86-1.859,4.44-2.93,7.07-2.93c2.63,0,5.2,1.07,7.07,2.93c0.46,0.46,0.88,0.971,1.239,1.521
	c0.36,0.54,0.67,1.12,0.92,1.729c0.25,0.601,0.44,1.23,0.57,1.87c0.13,0.641,0.2,1.3,0.2,1.95c0,2.63-1.07,5.21-2.93,7.07
	c-0.461,0.46-0.971,0.88-1.521,1.25c-0.54,0.359-1.12,0.67-1.729,0.92c-0.601,0.25-1.23,0.439-1.87,0.569
	C126.27,474.41,125.609,474.47,124.96,474.47z"/>
<path d="M445.135,292.485c-1.527-8.137-3.712-16.049-6.515-23.579c-10.938-29.407-49.308-57.942-62.703-67.221V10
	c0-5.522-4.478-10-10-10c-9.795,0-19.652,0.571-29.304,1.699c-0.021,0.003-0.043,0.005-0.064,0.007
	c-0.069,0.007-0.138,0.014-0.207,0.022C310.284,4.785,285,11.888,261.193,22.84c-0.377,0.168-6.056,2.882-6.308,3.015
	C234.194,36.068,215,49.106,197.84,64.604c-2.6,2.344-12.476,12.027-14.837,14.554c-15.729,16.725-29.075,35.491-39.668,55.782
	c-0.086,0.159-3.344,6.642-3.344,6.642c-11.582,23.855-19.245,49.304-22.773,75.634c-0.029,0.197-0.054,0.398-0.075,0.595
	c-0.577,4.308-1.041,8.669-1.391,13.063c-7.907-5.881-17.698-9.365-28.288-9.365c-26.19,0-47.498,21.308-47.498,47.498
	c0,23.295,16.855,42.726,39.01,46.739V502c0,5.522,4.478,10,10,10h71.972c5.522,0,10-4.478,10-10V306.505c0-5.522-4.478-10-10-10
	h-25.99V250.96c0-7.454,0.355-14.891,1.057-22.204c10.865-1.275,20.915-6.126,28.795-14.005
	c9.255-9.255,14.352-21.559,14.352-34.646c0-9.433-2.648-18.458-7.591-26.228c11.641-0.758,22.808-5.683,31.4-14.275
	c11.138-11.139,15.874-26.525,13.894-41.252c2.182,0.294,4.378,0.441,6.572,0.44c12.617,0,25.188-4.844,34.683-14.339
	c8.557-8.556,13.49-19.751,14.258-31.412c7.775,4.951,16.807,7.604,26.247,7.604c13.088,0,25.392-5.097,34.642-14.348
	c6.993-6.984,11.679-15.892,13.501-25.509c3.04-0.25,6.094-0.441,9.152-0.572v181.46c-13.418,9.266-51.807,37.745-62.729,67.215
	c-2.795,7.537-4.973,15.457-6.494,23.602c-17.365,19.464-26.892,44.413-26.892,70.6c0,18.652,4.911,37.002,14.203,53.064
	c1.788,3.091,5.087,4.993,8.656,4.993s6.868-1.903,8.656-4.992c4.416-7.634,10.064-14.623,16.609-20.6
	c7.927,12.074,16.81,22.484,24.975,30.893c-15.244,11.236-24.807,29.88-24.807,50.06c0,10.622,2.631,21.086,7.607,30.26
	c1.749,3.224,5.122,5.231,8.789,5.231c0.001,0,0.001,0,0.001,0c3.667,0,7.04-2.007,8.789-5.23
	c6.782-12.497,19.287-20.261,32.636-20.261s25.854,7.764,32.636,20.261c1.749,3.223,5.122,5.23,8.789,5.23s7.04-2.008,8.789-5.23
	c4.979-9.174,7.609-19.638,7.609-30.261c0-20.11-9.514-38.716-24.683-49.966c8.181-8.383,17.069-18.773,24.989-30.86
	c6.485,5.949,12.086,12.894,16.472,20.473c1.787,3.09,5.086,4.992,8.655,4.992c3.57,0,6.868-1.903,8.656-4.993
	c9.291-16.062,14.202-34.411,14.202-53.064C472.033,336.9,462.504,311.949,445.135,292.485z M427.824,322.298
	c0,44.065-31.931,80.311-51.906,98.671v-49.44c0-5.522-4.478-10-10-10s-10,4.478-10,10v49.331
	c-11.022-10.196-25.664-25.823-36.586-45.113c-0.018-0.031-0.035-0.063-0.053-0.094c-8.865-15.683-15.266-33.784-15.266-53.355
	c0-4.623,0.206-9.191,0.616-13.659h122.576C427.616,313.108,427.824,317.678,427.824,322.298z M59.967,269.006
	c0-15.162,12.336-27.498,27.498-27.498c14.997,0,27.229,12.069,27.493,27.005v0.986c-0.264,14.936-12.496,27.006-27.493,27.006
	C72.303,296.505,59.967,284.169,59.967,269.006z M150.948,492H98.977V316.505h15.981v112.634c0,5.522,4.478,10,10,10s10-4.478,10-10
	V316.505h15.99L150.948,492L150.948,492z M150.667,200.608c-3.333,3.333-7.32,5.75-11.669,7.133
	c2.972-15.742,7.574-31.082,13.749-45.829c4.156,5.138,6.415,11.492,6.415,18.193C159.161,187.85,156.145,195.132,150.667,200.608z
	 M188.827,125.459c-5.935,5.936-13.948,8.916-22.062,8.467c8.193-13.912,17.843-26.951,28.807-38.91
	C199.333,105.349,196.969,117.318,188.827,125.459z M243.977,70.309c-8.072,8.074-19.892,10.468-30.157,6.85
	c11.932-10.457,24.885-19.642,38.658-27.417C252.496,57.345,249.522,64.763,243.977,70.309z M298.622,40.643
	c-5.919,0-11.567-1.762-16.34-5.031c13.834-5.381,28.138-9.397,42.762-12.007c-1.429,3.154-3.426,6.054-5.919,8.543
	C313.65,37.626,306.368,40.643,298.622,40.643z M311.941,275.841c7.876-21.252,37.869-45.508,53.971-56.776
	c16.092,11.282,46.058,35.553,53.963,56.815c0,0.001,0.001,0.002,0.001,0.004c1.535,4.123,2.855,8.386,3.952,12.755H307.993
	C309.09,284.256,310.408,279.979,311.941,275.841z M284.496,391.176c-3.093-8.986-4.693-18.484-4.693-28.085
	c0-9.877,1.67-19.537,4.873-28.635c1.707,15.693,6.581,30.27,13.086,43.423C292.969,381.909,288.52,386.369,284.496,391.176z
	 M403.497,481.161c-10.332-9.298-23.627-14.652-37.58-14.652c-13.952,0-27.247,5.354-37.579,14.652
	c-0.161-1.539-0.243-3.093-0.243-4.652c0-15.112,7.725-28.884,19.713-35.987c6.827,5.902,11.603,9.315,12.349,9.841
	c1.727,1.217,3.743,1.825,5.76,1.825c1.993,0,3.987-0.595,5.702-1.785c0.751-0.521,5.584-3.926,12.482-9.836
	c11.944,7.118,19.639,20.873,19.639,35.942C403.741,478.068,403.659,479.622,403.497,481.161z M447.341,391.176
	c-3.993-4.768-8.402-9.196-13.151-13.199c6.46-13.138,11.292-27.73,12.981-43.493c3.196,9.089,4.863,18.739,4.863,28.607
	C452.033,372.692,450.433,382.19,447.341,391.176z"/>
<path d="M87.46,279.01c-0.65,0-1.3-0.07-1.95-0.2c-0.64-0.13-1.27-0.319-1.87-0.569c-0.6-0.25-1.18-0.561-1.729-0.921
	c-0.54-0.359-1.061-0.779-1.521-1.239s-0.88-0.98-1.24-1.521c-0.359-0.55-0.67-1.13-0.92-1.729c-0.25-0.601-0.439-1.23-0.569-1.87
	c-0.13-0.65-0.2-1.3-0.2-1.95c0-2.64,1.07-5.21,2.93-7.07c0.46-0.47,0.98-0.88,1.521-1.25c0.55-0.359,1.13-0.67,1.729-0.92
	c0.601-0.25,1.23-0.439,1.87-0.569c1.29-0.261,2.62-0.261,3.91,0c0.64,0.13,1.27,0.319,1.87,0.569s1.18,0.561,1.729,0.92
	c0.54,0.37,1.05,0.78,1.511,1.25c1.869,1.851,2.939,4.431,2.939,7.07c0,0.65-0.07,1.3-0.2,1.95c-0.13,0.64-0.319,1.27-0.569,1.87
	s-0.561,1.18-0.92,1.729c-0.37,0.54-0.78,1.061-1.25,1.521c-0.461,0.46-0.971,0.88-1.511,1.239c-0.55,0.36-1.13,0.671-1.729,0.921
	c-0.601,0.25-1.23,0.439-1.87,0.569C88.77,278.939,88.12,279.01,87.46,279.01z"/>
<g>
</g>
<g>
</g>
<g>
</g>
<g>
</g>
<g>
</g>
<g>
</g>
<g>
</g>
<g>
</g>
<g>
</g>
<g>
</g>
<g>
</g>
<g>
</g>
<g>
</g>
<g>
</g>
<g>
</g>
</svg>
