<?xml version="1.0" encoding="iso-8859-1"?>
<!-- Generator: Adobe Illustrator 19.0.0, SVG Export Plug-In . SVG Version: 6.00 Build 0)  -->
<svg version="1.1" id="Layer_1" xmlns="http://www.w3.org/2000/svg" xmlns:xlink="http://www.w3.org/1999/xlink" x="0px" y="0px"
	 viewBox="0 0 512.001 512.001" style="enable-background:new 0 0 512.001 512.001;" xml:space="preserve">
<path d="M42.745,472.228c-0.899,0-1.811-0.097-2.696-0.277s-1.756-0.441-2.585-0.787c-0.843-0.346-1.645-0.776-2.392-1.273
	c-0.76-0.496-1.466-1.077-2.102-1.713c-2.572-2.572-4.051-6.139-4.051-9.775c0-0.899,0.083-1.811,0.263-2.696
	c0.18-0.885,0.442-1.756,0.788-2.599c0.346-0.83,0.774-1.632,1.272-2.378c0.512-0.76,1.092-1.467,1.728-2.103
	c0.636-0.636,1.341-1.217,2.102-1.728c0.747-0.496,1.549-0.911,2.392-1.257c0.83-0.346,1.701-0.622,2.585-0.802
	c4.494-0.899,9.264,0.581,12.471,3.787c0.636,0.636,1.217,1.343,1.714,2.103c0.498,0.747,0.926,1.549,1.272,2.378
	c0.346,0.843,0.622,1.714,0.788,2.599c0.18,0.886,0.277,1.797,0.277,2.696c0,3.636-1.479,7.203-4.051,9.775
	c-0.636,0.636-1.341,1.217-2.102,1.713c-0.747,0.498-1.549,0.928-2.392,1.273c-0.83,0.346-1.701,0.607-2.585,0.787
	C44.558,472.129,43.644,472.228,42.745,472.228z"/>
<path d="M469.256,472.228c-0.899,0-1.813-0.097-2.696-0.277c-0.886-0.18-1.757-0.441-2.585-0.787
	c-0.843-0.346-1.645-0.776-2.392-1.273c-0.76-0.496-1.466-1.077-2.102-1.713c-2.572-2.572-4.051-6.139-4.051-9.775
	c0-0.899,0.083-1.811,0.261-2.696c0.18-0.885,0.442-1.756,0.802-2.599c0.346-0.83,0.76-1.632,1.272-2.378
	c0.498-0.76,1.078-1.467,1.714-2.103c2.572-2.57,6.137-4.051,9.775-4.051c3.636,0,7.203,1.479,9.774,4.051
	c0.636,0.636,1.217,1.343,1.714,2.103c0.498,0.747,0.926,1.549,1.272,2.378c0.346,0.843,0.622,1.714,0.788,2.599
	c0.18,0.886,0.277,1.797,0.277,2.696c0,3.636-1.479,7.203-4.052,9.775C476.46,470.747,472.893,472.228,469.256,472.228z"/>
<path style="fill:#D8766A;" d="M498.04,229.727c-1.746-22.602-20.442-40.641-43.088-41.647c-0.626-0.028-1.249-0.043-1.869-0.046
	c-23.47-0.1-42.31,19.478-42.352,42.95l-0.315,94.149H101.588l-0.315-94.149c-0.043-23.47-18.882-43.049-42.352-42.95
	c-0.621,0.003-1.243,0.018-1.869,0.046c-22.646,1.007-41.342,19.046-43.088,41.647c-1.797,23.256,13.985,43.156,35.454,47.841
	v48.486h413.168v-48.486C484.054,272.883,499.837,252.983,498.04,229.727z"/>
<path style="fill:#E4AAA9;" d="M57.849,188.08c0.626-0.028,1.249-0.043,1.869-0.046c23.47-0.098,42.309,19.48,42.352,42.95
	l0.315,94.149h308.827l0.315-94.149c0.043-23.471,18.882-43.049,42.352-42.95c0.104,0.001,0.207,0.007,0.311,0.008
	c-5.785-45.503-44.616-80.694-91.691-80.694c-3.497,0-6.942,0.212-10.336,0.59c-19.647-32.562-55.357-54.34-96.16-54.34
	s-76.513,21.778-96.16,54.34c-3.396-0.377-6.841-0.59-10.336-0.59c-47.089,0-85.93,35.211-91.697,80.735
	C57.824,188.083,57.836,188.08,57.849,188.08z"/>
<g>
	<path style="fill:#E0315B;" d="M256.747,325.479H102.333v-17.28c0-28.963,23.48-52.443,52.443-52.443h49.53
		c28.963,0,52.443,23.48,52.443,52.443v17.28H256.747z"/>
	<path style="fill:#E0315B;" d="M409.67,325.479H255.256v-17.28c0-28.963,23.48-52.443,52.443-52.443h49.53
		c28.963,0,52.443,23.48,52.443,52.443v17.28H409.67z"/>
</g>
<rect x="49.417" y="326.049" style="fill:#D8766A;" width="413.168" height="64.25"/>
<path d="M511.826,228.663c-2.02-26.127-21.002-47.367-45.838-52.986C454.95,128.162,412.229,93.523,362.5,93.523
	c-1.054,0-2.115,0.018-3.188,0.051c-23.608-33.845-61.622-53.8-103.309-53.8s-79.701,19.955-103.308,53.8
	c-1.072-0.033-2.135-0.051-3.188-0.051c-49.734,0-92.447,34.633-103.486,82.15c-24.833,5.613-43.825,26.856-45.845,52.99
	c-1.966,25.448,12.76,49.019,35.414,58.895v38.498v64.243c0,7.635,6.19,13.826,13.826,13.826h28.051l-15.169,15.167
	c-5.399,5.399-5.399,14.154,0,19.554c2.7,2.699,6.238,4.05,9.776,4.05s7.078-1.351,9.776-4.05l34.723-34.723h278.852l34.723,34.723
	c2.7,2.699,6.238,4.05,9.776,4.05s7.076-1.351,9.777-4.05c5.399-5.399,5.399-14.154,0-19.554l-15.17-15.17h28.051
	c7.635,0,13.826-6.191,13.826-13.826v-64.243v-38.496C499.066,277.682,513.792,254.111,511.826,228.663z M395.842,311.307H270.571
	v-3.108c0-2.855-0.202-5.663-0.554-8.424c3.855-17.254,19.281-30.192,37.679-30.192h49.528c21.292,0,38.617,17.323,38.617,38.617
	v3.108H395.842z M241.43,308.199v3.108H116.166l-0.007-2.013v-1.095c0-21.292,17.323-38.617,38.617-38.617h49.53
	c18.398,0,33.824,12.939,37.679,30.192C241.632,302.536,241.43,305.343,241.43,308.199z M149.507,121.174
	c2.833,0,5.796,0.17,8.806,0.505c5.359,0.597,10.581-1.979,13.369-6.598c18.004-29.841,49.528-47.656,84.322-47.656
	c34.795,0,66.317,17.815,84.322,47.656c2.789,4.619,8.011,7.185,13.369,6.598c3.01-0.335,5.972-0.505,8.806-0.505
	c34.825,0,65.011,22.953,75.06,55.213c-8.852,2.561-16.999,7.329-23.766,14.053c-10.863,10.798-16.862,25.189-16.891,40.498
	l-0.082,24.154c-11.054-8.264-24.764-13.163-39.597-13.163h-49.528c-20.89,0-39.541,9.727-51.697,24.877
	c-12.155-15.151-30.806-24.877-51.697-24.877h-49.53c-14.483,0-27.885,4.683-38.8,12.594l-0.079-23.567
	c-0.028-15.329-6.025-29.718-16.89-40.518c-6.952-6.91-15.358-11.769-24.494-14.274C84.626,144.02,114.753,121.174,149.507,121.174z
	 M27.746,230.793c1.199-15.513,14.341-28.207,29.899-28.899c0.111-0.006,0.22-0.004,0.329-0.007c0.191-0.003,0.38,0.012,0.572,0.003
	c0.25-0.01,0.498-0.012,0.747-0.018c7.263,0.053,14.15,2.944,19.419,8.182c5.616,5.583,8.717,13.026,8.731,20.977l0.272,81.198
	H63.244V277.57c0-6.5-4.528-12.123-10.878-13.51C37.122,260.734,26.539,246.431,27.746,230.793z M448.759,376.472h-41.877
	l-0.188-0.188c-5.401-5.398-14.152-5.398-19.554,0c-0.061,0.061-0.111,0.127-0.17,0.188H125.031
	c-0.059-0.061-0.109-0.127-0.17-0.188c-5.399-5.398-14.154-5.398-19.554,0l-0.188,0.188H63.244v-36.591h385.515L448.759,376.472
	L448.759,376.472z M459.637,264.059c-6.352,1.387-10.878,7.008-10.878,13.51v34.659h-23.677l0.272-81.218
	c0.015-7.932,3.116-15.375,8.731-20.956c5.254-5.224,12.116-8.11,19.357-8.18c0.3,0.004,0.603,0.006,0.893,0.019
	c15.578,0.693,28.718,13.388,29.918,28.899C485.465,246.432,474.879,260.734,459.637,264.059z"/>
<path d="M279.139,139.393c-5.398-5.395-14.15-5.398-19.554,0L256,142.978l-3.585-3.585c-5.399-5.398-14.154-5.398-19.553,0
	c-5.399,5.399-5.399,14.154,0,19.554l3.584,3.584l-3.584,3.585c-5.399,5.399-5.401,14.154,0,19.554c2.7,2.699,6.238,4.05,9.776,4.05
	c3.538,0,7.078-1.351,9.776-4.05l3.585-3.585l3.585,3.585c2.7,2.699,6.238,4.05,9.776,4.05c3.538,0,7.076-1.351,9.776-4.05
	c5.399-5.399,5.399-14.154,0-19.554l-3.584-3.585l3.584-3.584C284.539,153.547,284.539,144.792,279.139,139.393z"/>
<path d="M375.679,188.036l3.584-3.585c5.399-5.399,5.399-14.154,0-19.554c-5.398-5.395-14.15-5.398-19.554,0l-3.585,3.585
	l-3.585-3.585c-5.401-5.398-14.155-5.398-19.554,0c-5.399,5.399-5.399,14.154,0,19.554l3.584,3.585l-3.584,3.584
	c-5.399,5.399-5.399,14.154,0,19.554c2.7,2.699,6.238,4.05,9.776,4.05s7.076-1.351,9.776-4.05l3.585-3.585l3.585,3.585
	c2.7,2.699,6.238,4.05,9.776,4.05s7.078-1.351,9.777-4.05c5.399-5.399,5.399-14.154,0-19.554L375.679,188.036z"/>
<path d="M179.016,164.896c-5.399-5.396-14.154-5.396-19.553,0l-3.585,3.585l-3.585-3.585c-5.399-5.398-14.154-5.398-19.553,0
	c-5.399,5.399-5.399,14.154,0,19.554l3.585,3.585l-3.584,3.584c-5.399,5.399-5.401,14.154,0,19.554c2.7,2.699,6.238,4.05,9.776,4.05
	s7.078-1.351,9.776-4.05l3.585-3.585l3.585,3.585c2.7,2.699,6.238,4.05,9.776,4.05s7.078-1.351,9.776-4.05
	c5.399-5.399,5.399-14.154,0-19.554l-3.587-3.584l3.584-3.585C184.415,179.052,184.415,170.297,179.016,164.896z"/>
<g>
</g>
<g>
</g>
<g>
</g>
<g>
</g>
<g>
</g>
<g>
</g>
<g>
</g>
<g>
</g>
<g>
</g>
<g>
</g>
<g>
</g>
<g>
</g>
<g>
</g>
<g>
</g>
<g>
</g>
</svg>
