<svg height="512pt" viewBox="-106 0 512 512" width="512pt" xmlns="http://www.w3.org/2000/svg"><g fill-rule="evenodd"><path d="m230 120c0-44-36-80-80-80s-80 36-80 80zm0 0" fill="#ffe7c3"/><path d="m230 160c0 44-36 80-80 80s-80-36-80-80v-40c0-44 36-80 80-80s80 36 80 80zm-120.804688-142.109375c-.003906.003906-.007812.003906 0 0zm134.105469 240.195313c10.574219-16.882813 16.699219-36.804688 16.699219-58.082032v-80.003906c0-60.5-49.5-110-110-110-14.398438 0-28.171875 2.804688-40.804688 7.890625-40.453124 16.292969-69.195312 56.007813-69.195312 102.109375v80.003906c0 21.277344 6.125 41.199219 16.699219 58.082032 19.488281 31.113281 54.082031 51.914062 93.300781 51.914062s73.8125-20.800781 93.300781-51.914062zm0 0" fill="#c894c4"/><path d="m10 502h280v-192c0-22-14.953125-42.84375-40-50l-6.699219-1.914062c-19.488281 31.113281-54.082031 51.914062-93.300781 51.914062-31.964844 0-60.855469-13.816406-81-35.769531-4.574219-4.984375-8.695312-10.386719-12.300781-16.144531l-6.699219 1.914062c-25.050781 7.15625-40 28-40 50zm0 0" fill="#a6f074"/><path d="m70 160c0 44 36 80 80 80s80-36 80-80v-40h-160zm0 0" fill="#f4cdac"/></g><path d="m130.117188 150c0-5.523438-4.476563-10-10-10h-.234376c-5.523437 0-10 4.476562-10 10s4.476563 10 10 10h.234376c5.523437 0 10-4.476562 10-10zm0 0"/><path d="m180.121094 140h-.238282c-5.523437 0-10 4.476562-10 10s4.476563 10 10 10h.238282c5.519531 0 10-4.476562 10-10s-4.480469-10-10-10zm0 0"/><path d="m162.929688 184.640625c-3.453126 3.457031-8.046876 5.359375-12.929688 5.359375s-9.476562-1.902344-12.929688-5.355469c-3.902343-3.90625-10.234374-3.90625-14.140624-.003906-3.90625 3.90625-3.90625 10.238281 0 14.144531 7.226562 7.230469 16.84375 11.214844 27.070312 11.214844s19.839844-3.984375 27.070312-11.214844c3.90625-3.90625 3.90625-10.238281 0-14.144531s-10.234374-3.90625-14.140624 0zm0 0"/><path d="m258.070312 252.136719c7.640626-15.777344 11.929688-33.464844 11.929688-52.136719v-80c0-66.167969-53.832031-120-120-120-5.523438 0-10 4.476562-10 10s4.476562 10 10 10c55.140625 0 100 44.859375 100 100v80c0 17.40625-4.476562 33.789062-12.328125 48.058594-20.960937-.183594-39.734375-1.398438-56.390625-3.671875 34.25-12.738281 58.71875-45.757813 58.71875-84.386719v-40c0-49.625-40.375-90-90-90s-90 40.375-90 90c0 0 .015625 41.703125.039062 42.554688.804688 39.164062 20.113282 67.785156 57.453126 85.089843 25.992187 12.046875 60.796874 18.667969 105.972656 20.125-18.285156 19.804688-44.449219 32.230469-73.464844 32.230469-54.417969 0-100-45.519531-100-100v-80c.003906-31.410156 15.191406-61.4375 40.636719-80.328125 4.433593-3.292969 5.359375-9.554687 2.066406-13.988281-3.292969-4.4375-9.554687-5.363282-13.988281-2.070313-30.503906 22.644531-48.714844 58.675781-48.714844 96.386719v80c0 18.671875 4.289062 36.359375 11.929688 52.136719-25.296876 9.417969-41.929688 32.050781-41.929688 57.863281v192c0 5.523438 4.476562 10 10 10h99.808594c5.523437 0 10-4.476562 10-10s-4.476563-10-10-10h-29.808594v-80.769531c0-3.574219-1.90625-6.875-5-8.660157-6.226562-3.597656-10.746094-15.15625-10.746094-27.488281 0-12.183593 4.117188-22.132812 10.746094-25.960937 4.785156-2.757813 6.421875-8.875 3.660156-13.660156-2.761718-4.78125-8.875-6.421876-13.660156-3.660157-12.988281 7.503907-20.746094 23.683594-20.746094 43.28125 0 17.164063 6.03125 32.582031 15.746094 41.1875v75.730469h-40v-182c0-18.445312 13.003906-34.585938 32.390625-40.273438 21.792969 30.414063 57.425781 50.273438 97.609375 50.273438 40.1875 0 75.820312-19.859375 97.609375-50.273438 19.386719 5.691407 32.390625 21.828126 32.390625 40.273438v182h-40.003906v-75.730469c9.71875-8.601562 15.75-24.023437 15.75-41.1875 0-19.597656-7.757813-35.777343-20.75-43.28125-4.78125-2.761719-10.898438-1.121093-13.660156 3.660157-2.761719 4.785156-1.121094 10.902343 3.660156 13.660156 6.632812 3.828125 10.75 13.777344 10.75 25.960937 0 12.332031-4.519532 23.890625-10.75 27.488281-3.09375 1.785157-5 5.085938-5 8.660157v80.769531h-41.222656c-5.523438 0-10 4.476562-10 10s4.476562 10 10 10h111.226562c5.519531 0 10-4.476562 10-10v-192c0-25.8125-16.632812-48.445312-41.929688-57.863281zm-108.070312-22.136719c-38.597656 0-70-31.402344-70-70v-30h140v30c0 38.597656-31.402344 70-70 70zm0-180c35.203125 0 64.40625 26.125 69.273438 60h-138.546876c4.867188-33.875 34.070313-60 69.273438-60zm0 0"/><path d="m150 492c-5.523438 0-10 4.476562-10 10s4.476562 10 10 10h.003906c5.519532 0 9.996094-4.476562 9.996094-10s-4.480469-10-10-10zm0 0"/><path d="m119 18c0 5.523438-4.476562 10-10 10s-10-4.476562-10-10 4.476562-10 10-10 10 4.476562 10 10zm0 0"/></svg>