<svg id="Layer_35" enable-background="new 0 0 64 64" height="512" viewBox="0 0 64 64" width="512" xmlns="http://www.w3.org/2000/svg"><path d="m29 22v16h-10-2v-4h2.5c1.38 0 2.5-1.12 2.5-2.5 0-.69-.28-1.32-.73-1.77s-1.08-.73-1.77-.73h-2.5v-7h6.75z" fill="#e6e9ed"/><path d="m47 34v4h-2-10v-16h5.25 6.75v7h-2.5c-.69 0-1.32.28-1.77.73s-.73 1.08-.73 1.77c0 1.38 1.12 2.5 2.5 2.5z" fill="#e6e9ed"/><path d="m57 27c0 1.1-.9 2-2 2h-8v-7h-6.75c.89-3.45 4.02-6 7.75-6h3 3c4.42 0 8 3.58 8 8v3z" fill="#b4dd7f"/><path d="m7 27h-5v-3c0-4.42 3.58-8 8-8h3 3c3.73 0 6.86 2.55 7.75 6h-6.75v7h-8c-1.1 0-2-.9-2-2z" fill="#fcd770"/><path d="m13 59c0 1.66-1.34 3-3 3-.83 0-1.58-.34-2.12-.88s-.88-1.29-.88-2.12v-25.09c.32.06.66.09 1 .09h9v4h2v21c0 .83-.34 1.58-.88 2.12s-1.29.88-2.12.88c-1.66 0-3-1.34-3-3z" fill="#838f9b"/><path d="m51 59c0 1.66-1.34 3-3 3-.83 0-1.58-.34-2.12-.88s-.88-1.29-.88-2.12v-21h2v-4h9c.34 0 .68-.03 1-.09v25.09c0 .83-.34 1.58-.88 2.12s-1.29.88-2.12.88c-1.66 0-3-1.34-3-3z" fill="#838f9b"/><g fill="#f0d0b4"><circle cx="13" cy="9" r="7"/><path d="m7 33.91c-2.84-.47-5-2.94-5-5.91v-1h5c0 1.1.9 2 2 2h8 2.5c.69 0 1.32.28 1.77.73s.73 1.08.73 1.77c0 1.38-1.12 2.5-2.5 2.5h-2.5-9c-.34 0-.68-.03-1-.09z"/><path d="m57 33.91c-.32.06-.66.09-1 .09h-9-2.5c-1.38 0-2.5-1.12-2.5-2.5 0-.69.28-1.32.73-1.77s1.08-.73 1.77-.73h2.5 8c1.1 0 2-.9 2-2h5v1c0 2.97-2.16 5.44-5 5.91z"/><circle cx="51" cy="9" r="7"/></g><path d="m41 44v4h-12v3l-6-7z" fill="#ffeaa7"/><path d="m36 7 6 7h-18v-4h12z" fill="#ffeaa7"/><path d="m56.003 15.233c1.825-1.468 2.997-3.715 2.997-6.233 0-4.411-3.589-8-8-8s-8 3.589-8 8c0 2.518 1.172 4.764 2.996 6.232-2.979.679-5.45 2.837-6.483 5.768h-5.513v18h10v20c0 2.206 1.794 4 4 4 1.201 0 2.266-.542 3-1.382.734.84 1.799 1.382 3 1.382 2.206 0 4-1.794 4-4v-24.295c2.888-.863 5-3.541 5-6.705v-4c0-4.273-2.996-7.853-6.997-8.767zm-11.003-6.233c0-3.309 2.691-6 6-6s6 2.691 6 6-2.691 6-6 6-6-2.691-6-6zm3 8h3 3c3.859 0 7 3.141 7 7v2h-3v-4h-2v5c0 .552-.448 1-1 1h-7v-7h-6.316c1.14-2.404 3.573-4 6.316-4zm-12 6h10v5h-1.5c-1.93 0-3.5 1.57-3.5 3.5s1.57 3.5 3.5 3.5h1.5v2h-10zm20 36c0 1.103-.897 2-2 2s-2-.897-2-2v-20h-2v20c0 1.103-.897 2-2 2s-2-.897-2-2v-20h2v-4h8zm0-26h-11.5c-.827 0-1.5-.673-1.5-1.5s.673-1.5 1.5-1.5h10.5c1.302 0 2.402-.839 2.816-2h3.184c0 2.757-2.243 5-5 5z"/><path d="m30 39v-18h-5.512c-1.034-2.932-3.504-5.089-6.483-5.768 1.823-1.468 2.995-3.714 2.995-6.232 0-4.411-3.589-8-8-8s-8 3.589-8 8c0 2.518 1.172 4.765 2.997 6.233-4.001.914-6.997 4.494-6.997 8.767v4c0 3.164 2.113 5.842 5 6.705v24.295c0 2.206 1.794 4 4 4 1.201 0 2.266-.542 3-1.382.734.84 1.799 1.382 3 1.382 2.206 0 4-1.794 4-4v-20zm-2-2h-10v-2h1.5c1.93 0 3.5-1.57 3.5-3.5s-1.57-3.5-3.5-3.5h-1.5v-5h10zm-21-28c0-3.309 2.691-6 6-6s6 2.691 6 6-2.691 6-6 6-6-2.691-6-6zm3 8h3 3c2.743 0 5.176 1.596 6.316 4h-6.316v7h-7c-.552 0-1-.448-1-1v-5h-2v4h-3v-2c0-3.859 3.141-7 7-7zm-7 11h3.184c.414 1.161 1.514 2 2.816 2h10.5c.827 0 1.5.673 1.5 1.5s-.673 1.5-1.5 1.5h-11.5c-2.757 0-5-2.243-5-5zm15 31c0 1.103-.897 2-2 2s-2-.897-2-2v-20h-2v20c0 1.103-.897 2-2 2s-2-.897-2-2v-24h8v4h2z"/><path d="m30 53.703v-4.703h12v-6h-21.174zm10-6.703h-12v1.297l-2.826-3.297h14.826z"/><path d="m32 51h2v2h-2z"/><path d="m36 51h2v2h-2z"/><path d="m40 51h2v2h-2z"/><path d="m35 4.297v4.703h-12v6h21.174zm-10 6.703h12v-1.297l2.826 3.297h-14.826z"/><path d="m31 5h2v2h-2z"/><path d="m27 5h2v2h-2z"/><path d="m23 5h2v2h-2z"/></svg>