<svg height="512pt" viewBox="0 -5 512 511" width="512pt" xmlns="http://www.w3.org/2000/svg"><path d="m500.777344 256.5c0 135.308594-109.691406 245-245 245-135.3125 0-245-109.691406-245-245s109.6875-245 245-245c135.308594 0 245 109.691406 245 245zm0 0" fill="#46cec3"/><path d="m244.496094 57.761719c3.546875 1.488281 7.441406 2.3125 11.527344 2.3125 3.933593 0 7.683593-.769531 11.121093-2.15625l64.613281 111.917969h17.320313l-69.8125-120.929688c4.089844-5.097656 6.542969-11.570312 6.542969-18.621094 0-16.449218-13.335938-29.785156-29.785156-29.785156-16.453126 0-29.789063 13.335938-29.789063 29.785156 0 6.886719 2.339844 13.21875 6.261719 18.261719l-70.023438 121.289063h17.320313zm0 0" fill="#6843af"/><path d="m285.808594 30.285156c0 16.453125-13.335938 29.789063-29.785156 29.789063-16.453126 0-29.789063-13.335938-29.789063-29.789063 0-16.449218 13.335937-29.785156 29.789063-29.785156 16.449218 0 29.785156 13.335938 29.785156 29.785156zm0 0" fill="#ef3a50"/><path d="m244.808594 30.285156c0-13.207031 8.597656-24.398437 20.5-28.300781-2.921875-.957031-6.042969-1.484375-9.285156-1.484375-16.453126 0-29.789063 13.335938-29.789063 29.785156 0 16.453125 13.335937 29.789063 29.789063 29.789063 3.242187 0 6.363281-.527344 9.285156-1.484375-11.902344-3.902344-20.5-15.097656-20.5-28.304688zm0 0" fill="#ce2844"/><path d="m200.71875 133.585938h-17.320312l-20.925782 36.25h17.320313zm0 0" fill="#50309e"/><path d="m328.152344 133.585938h-17.320313l20.929688 36.25h17.316406zm0 0" fill="#50309e"/><path d="m497 354.371094h-482c-8.285156 0-15-6.71875-15-15v-165.742188c0-8.28125 6.714844-15 15-15h482c8.285156 0 15 6.71875 15 15v165.742188c0 8.28125-6.714844 15-15 15zm0 0" fill="#ef3a50"/><path d="m497 354.371094h-482c-8.285156 0-15-6.71875-15-15v-165.742188c0-8.28125 6.714844-15 15-15h482c8.285156 0 15 6.71875 15 15v165.742188c0 8.28125-6.714844 15-15 15zm0 0" fill="#ef3a50"/><path d="m497 339.613281h-420.207031c-8.28125 0-14.996094-6.710937-15-14.996093-.003907-40.835938-.011719-150.984376-.011719-150.984376 0-8.285156 6.71875-15 15-15h-61.78125c-8.285156 0-15 6.714844-15 15v165.738282c0 8.28125 6.714844 15 15 15h482c8.285156 0 15-6.71875 15-15v-14.757813c0 8.28125-6.714844 15-15 15zm0 0" fill="#ce2844"/><g fill="#fff"><path d="m166.832031 248.480469c8.6875.042969 15.789063 3.472656 21.304688 10.292969 5.601562 6.90625 7.492187 14.8125 5.667969 23.710937-1.300782 6.472656-4.5625 11.792969-9.773438 15.964844-5.167969 4.125-11.074219 6.1875-17.71875 6.1875h-.066406c-6.167969 0-11.726563-1.890625-16.675782-5.667969-4.824218-3.691406-8.101562-8.445312-9.839843-14.269531-.609375-2.039063-.304688-3.90625.914062-5.601563 1.214844-1.695312 2.867188-2.539062 4.949219-2.539062 3.085938 0 5.039062 1.453125 5.863281 4.363281.957031 3.257813 2.78125 5.929687 5.472657 8.011719 2.738281 2.128906 5.84375 3.195312 9.316406 3.195312h.261718c3.519532 0 6.667969-1.042968 9.445313-3.128906 2.824219-2.128906 4.691406-4.863281 5.605469-8.210938 1.300781-5.078124.410156-9.640624-2.671875-13.679687-2.996094-3.953125-6.949219-5.992187-11.859375-6.125-7.035156-.128906-13.007813-2.625-17.914063-7.492187-4.953125-4.863282-7.425781-10.789063-7.425781-17.785157v-1.824219c0-6.992187 2.453125-12.964843 7.359375-17.914062 4.863281-4.910156 10.75-7.363281 17.65625-7.363281h.390625c5.429688 0 10.3125 1.609375 14.660156 4.820312 4.296875 3.171875 7.296875 7.277344 8.988282 12.3125.652343 2 .347656 3.867188-.910157 5.605469-1.21875 1.691406-2.867187 2.539062-4.953125 2.539062h-.0625c-2.910156 0-4.824218-1.367187-5.734375-4.101562-.867187-2.5625-2.390625-4.648438-4.5625-6.253906-2.214843-1.652344-4.6875-2.476563-7.425781-2.476563h-.390625c-3.519531 0-6.492187 1.257813-8.925781 3.777344-2.476563 2.476563-3.714844 5.496094-3.714844 9.058594v2.019531c0 3.515625 1.261719 6.492188 3.78125 8.921875 2.472656 2.433594 5.472656 3.652344 8.988281 3.652344zm0 0"/><path d="m254.785156 225.742188c.824219 2.476562 1.238282 4.996093 1.238282 7.558593v65.210938c0 1.695312-.609376 3.148437-1.824219 4.367187-1.175781 1.171875-2.605469 1.757813-4.300781 1.757813-1.695313 0-3.128907-.585938-4.300782-1.757813-1.171875-1.21875-1.757812-2.671875-1.757812-4.367187v-39.085938h-25.34375v39.085938c0 1.695312-.585938 3.148437-1.761719 4.367187-1.214844 1.171875-2.648437 1.757813-4.296875 1.757813-1.695312 0-3.152344-.585938-4.367188-1.757813-1.171874-1.21875-1.757812-2.671875-1.757812-4.367187v-65.210938c0-2.5625.390625-5.082031 1.171875-7.558593.132813-.433594.152344-.542969.066406-.328126 2.691407-7.945312 8.035157-13.15625 16.023438-15.632812.042969 0 .109375-.023438.195312-.066406.652344-.171875 1.328125-.347656 2.023438-.519532h.195312c.128907-.042968.214844-.066406.257813-.066406.609375-.128906 1.238281-.238281 1.890625-.324218l.457031-.066407c.867188-.042969 1.648438-.066406 2.34375-.066406h.457031c.695313 0 1.453125.023437 2.28125.066406l.519531.066407c.652344.085937 1.28125.191406 1.890626.324218.042968 0 .109374.023438.195312.066406h.261719c.691406.171876 1.367187.347657 2.019531.519532.042969.042968.085938.066406.128906.066406 7.992188 2.476562 13.335938 7.6875 16.027344 15.632812.042969.046876.066406.109376.066406.199219zm-10.945312 21.5v-13.941407c0-1.652343-.324219-3.238281-.976563-4.757812l-.066406-.128907c-.476563-1.085937-1.085937-2.085937-1.824219-3 .042969.046876 0-.019531-.128906-.191406-.390625-.4375-.824219-.871094-1.304688-1.304687-.171874-.128907-.304687-.238281-.390624-.324219-.261719-.21875-.519532-.414062-.78125-.585938-.261719-.175781-.542969-.347656-.847657-.523437-.261719-.128906-.566406-.28125-.910156-.457031-.304687-.128906-.609375-.257813-.914063-.390625-.347656-.128907-.542968-.195313-.585937-.195313-.476563-.171875-.976563-.300781-1.5-.390625-.085937 0-.257813-.019531-.519531-.0625-.609375-.089843-1.152344-.132812-1.628906-.132812h-.585938c-.480469 0-1.019531.042969-1.628906.132812-.261719.042969-.433594.0625-.519532.0625-.523437.089844-1.023437.21875-1.5.390625l-.652343.195313c-.304688.132812-.585938.261719-.847657.390625-.390624.175781-.695312.328125-.910156.457031-.347656.175781-.628906.347656-.847656.523437-.261719.171876-.519531.367188-.78125.585938-.042969 0-.175781.105469-.390625.324219-.480469.433593-.914063.867187-1.304687 1.304687-.042969.042969-.0625.085938-.0625.128906-.046876.042969-.089844.0625-.132813.0625-.738281.914063-1.324219 1.914063-1.757813 3 0-.042968-.023437 0-.066406.128907-.652344 1.519531-.976562 3.105469-.976562 4.757812v13.941407zm0 0"/><path d="m311.660156 292.453125c1.691406 0 3.125.585937 4.300782 1.761719 1.214843 1.214844 1.820312 2.648437 1.820312 4.296875 0 1.695312-.605469 3.148437-1.820312 4.367187-1.175782 1.171875-2.605469 1.757813-4.300782 1.757813h-35.183594c-1.691406 0-3.148437-.585938-4.363281-1.757813-1.171875-1.21875-1.757812-2.671875-1.757812-4.367187v-82.609375c0-1.691406.585937-3.125 1.757812-4.296875 1.214844-1.214844 2.671875-1.824219 4.363281-1.824219 1.652344 0 3.085938.609375 4.300782 1.824219 1.171875 1.171875 1.761718 2.605469 1.761718 4.296875v76.550781zm0 0"/><path d="m366.449219 292.453125c1.695312 0 3.128906.585937 4.300781 1.761719 1.214844 1.214844 1.824219 2.648437 1.824219 4.296875 0 1.695312-.609375 3.148437-1.824219 4.367187-1.171875 1.171875-2.605469 1.757813-4.300781 1.757813h-32.117188c-1.695312 0-3.148437-.585938-4.363281-1.757813-1.175781-1.21875-1.761719-2.671875-1.761719-4.367187v-81.5c0-1.648438.585938-3.082031 1.761719-4.300781 1.214844-1.171876 2.667969-1.757813 4.363281-1.757813h32.117188c1.695312 0 3.128906.585937 4.300781 1.757813 1.214844 1.21875 1.824219 2.652343 1.824219 4.300781 0 1.695312-.609375 3.128906-1.824219 4.300781-1.171875 1.214844-2.605469 1.824219-4.300781 1.824219h-26.058594v25.277343h22.148437c1.695313 0 3.148438.585938 4.367188 1.757813 1.171875 1.175781 1.757812 2.605469 1.757812 4.300781 0 1.695313-.585937 3.128906-1.757812 4.300782-1.21875 1.214843-2.671875 1.824218-4.367188 1.824218h-22.148437v31.855469zm0 0"/></g><path d="m467.207031 380.328125h-124.828125c-4.828125 0-8.738281 3.910156-8.738281 8.734375v.871094c0 4.824218 3.914063 8.734375 8.738281 8.734375h18.769532c5.066406 0 9.171874 4.105469 9.171874 9.167969 0 4.523437-3.273437 8.269531-7.582031 9.023437h-58.375c-6.796875 0-12.304687 5.511719-12.304687 12.304687 0 6.796876 5.507812 12.308594 12.304687 12.308594h52.671875c5.242188 0 9.496094 4.25 9.496094 9.496094 0 5.242188-4.253906 9.492188-9.496094 9.492188h-19.75c-4.824218 0-8.734375 3.910156-8.734375 8.734374v1.519532c0 4.824218 3.910157 8.738281 8.734375 8.738281h20.1875c45.976563-21.007813 84.3125-55.816406 109.734375-99.125zm0 0" fill="#78efe1"/><path d="m126.757812 120.609375v-1.410156c0-4.484375-3.632812-8.121094-8.117187-8.121094h-18.359375c-4.875 0-8.828125-3.953125-8.828125-8.824219 0-4.875 3.953125-8.828125 8.828125-8.828125h48.960938c6.316406 0 11.4375-5.121093 11.4375-11.4375 0-6.316406-5.121094-11.441406-11.4375-11.441406h-52.976563c-19.394531 16.652344-36.152344 36.28125-49.566406 58.183594h71.9375c4.484375 0 8.121093-3.636719 8.121093-8.121094zm0 0" fill="#78efe1"/><path d="m148.226562 446.777344v-1.527344c0-4.855469-3.9375-8.792969-8.792968-8.792969h-19.878906c-5.28125 0-9.558594-4.28125-9.558594-9.558593 0-5.28125 4.277344-9.558594 9.558594-9.558594h53.019531c6.84375 0 12.390625-5.546875 12.390625-12.386719s-5.546875-12.386719-12.390625-12.386719h-117.765625c-.777344.285156-1.507813.574219-2.222656.867188 16.285156 24.121094 36.757812 45.171875 60.367187 62.140625h26.480469c4.855468 0 8.792968-3.9375 8.792968-8.796875zm0 0" fill="#78efe1"/></svg>