<svg height="444pt" viewBox="0 -66 444 444" width="444pt" xmlns="http://www.w3.org/2000/svg"><path d="m258 6h120v240h-120zm0 0" fill="#d3ba2a"/><path d="m6 6h120v240h-120zm0 0" fill="#ede49d"/><path d="m126 6h132v240h-132zm0 0" fill="#eee045"/><path d="m126 246-12 60h52l4-60zm0 0" fill="#ede49d"/><path d="m258 246h-44l4 60h52zm0 0" fill="#d3ba2a"/><path d="m192 246h-22l-4 60h52l-4-60zm0 0" fill="#eee045"/><path d="m378 252h-372c-3.3125 0-6-2.6875-6-6v-240c0-3.3125 2.6875-6 6-6h372c3.3125 0 6 2.6875 6 6v240c0 3.3125-2.6875 6-6 6zm-366-12h360v-228h-360zm0 0" fill="#1c2d6b"/><path d="m30 30h96v180h-96zm0 0" fill="#89aadb"/><path d="m258 30h96v180h-96zm0 0" fill="#4b67b0"/><path d="m126 30h132v180h-132zm0 0" fill="#6287c5"/><path d="m354 216h-324c-3.3125 0-6-2.6875-6-6v-180c0-3.3125 2.6875-6 6-6h324c3.3125 0 6 2.6875 6 6v180c0 3.3125-2.6875 6-6 6zm-318-12h312v-168h-312zm0 0" fill="#1c2d6b"/><path d="m396 66h42v216h-42zm0 0" fill="#e8383b"/><path d="m306 66h42v216h-42zm0 0" fill="#ef7f72"/><path d="m348 66h48v216h-48zm0 0" fill="#e95947"/><g fill="#1c2d6b"><path d="m438 288h-132c-3.3125 0-6-2.6875-6-6v-216c0-3.3125 2.6875-6 6-6h132c3.3125 0 6 2.6875 6 6v216c0 3.3125-2.6875 6-6 6zm-126-12h120v-204h-120zm0 0"/><path d="m102 228c0 3.3125-2.6875 6-6 6s-6-2.6875-6-6 2.6875-6 6-6 6 2.6875 6 6zm0 0"/><path d="m78 228c0 3.3125-2.6875 6-6 6s-6-2.6875-6-6 2.6875-6 6-6 6 2.6875 6 6zm0 0"/><path d="m54 228c0 3.3125-2.6875 6-6 6s-6-2.6875-6-6 2.6875-6 6-6 6 2.6875 6 6zm0 0"/></g><path d="m330 138h28v24h-28zm0 0" fill="#89aadb"/><path d="m386 138h28v24h-28zm0 0" fill="#4b67b0"/><path d="m358 138h28v24h-28zm0 0" fill="#6287c5"/><path d="m330 90h28v24h-28zm0 0" fill="#89aadb"/><path d="m386 90h28v24h-28zm0 0" fill="#4b67b0"/><path d="m358 90h28v24h-28zm0 0" fill="#6287c5"/><path d="m414 120h-84c-3.3125 0-6-2.6875-6-6v-24c0-3.3125 2.6875-6 6-6h84c3.3125 0 6 2.6875 6 6v24c0 3.3125-2.6875 6-6 6zm-78-12h72v-12h-72zm0 0" fill="#1c2d6b"/><path d="m414 168h-84c-3.3125 0-6-2.6875-6-6v-24c0-3.3125 2.6875-6 6-6h84c3.3125 0 6 2.6875 6 6v24c0 3.3125-2.6875 6-6 6zm-78-12h72v-12h-72zm0 0" fill="#1c2d6b"/><path d="m372 198c3.3125 0 6 10.746094 6 24s-2.6875 24-6 24c13.253906 0 24-10.746094 24-24s-10.746094-24-24-24zm0 0" fill="#419b46"/><path d="m366 222c0-13.253906 2.6875-24 6-24-13.253906 0-24 10.746094-24 24s10.746094 24 24 24c-3.3125 0-6-10.746094-6-24zm0 0" fill="#a4d4a0"/><path d="m378 222c0-13.253906-2.6875-24-6-24s-6 10.746094-6 24 2.6875 24 6 24 6-10.746094 6-24zm0 0" fill="#65bc49"/><path d="m372 252c-16.542969 0-30-13.457031-30-30s13.457031-30 30-30 30 13.457031 30 30-13.457031 30-30 30zm0-48c-9.925781 0-18 8.074219-18 18s8.074219 18 18 18 18-8.074219 18-18-8.074219-18-18-18zm0 0" fill="#1c2d6b"/><path d="m318 282h36v24h-36zm0 0" fill="#ede49d"/><path d="m390 282h36v24h-36zm0 0" fill="#d3ba2a"/><path d="m354 282h36v24h-36zm0 0" fill="#eee045"/><path d="m426 312h-108c-3.3125 0-6-2.6875-6-6v-24c0-3.3125 2.6875-6 6-6h108c3.3125 0 6 2.6875 6 6v24c0 3.3125-2.6875 6-6 6zm-102-12h96v-12h-96zm0 0" fill="#1c2d6b"/><path d="m270 312h-156c-1.796875 0-3.5-.804688-4.640625-2.195312-1.140625-1.390626-1.59375-3.21875-1.242187-4.980469l12-60c.5625-2.804688 3.023437-4.824219 5.882812-4.824219h132c2.859375 0 5.320312 2.019531 5.882812 4.824219l12 60c.351563 1.761719-.101562 3.589843-1.242187 4.980469-1.140625 1.390624-2.84375 2.195312-4.640625 2.195312zm-148.683594-12h141.367188l-9.601563-48h-122.164062zm0 0" fill="#1c2d6b"/></svg>