<svg height="420pt" viewBox="-24 0 420 420" width="420pt" xmlns="http://www.w3.org/2000/svg"><path d="m246 90v288.453125c0 6.375-5.171875 11.546875-11.546875 11.546875h111.546875c11.046875 0 20-8.953125 20-20v-280zm0 0" fill="#d3ba2a"/><path d="m126 378.453125v-288.453125h-120v280c0 11.046875 8.953125 20 20 20h111.546875c-6.375 0-11.546875-5.171875-11.546875-11.546875zm0 0" fill="#ede49d"/><path d="m246 378.453125v-288.453125h-120v288.453125c0 6.375 5.171875 11.546875 11.546875 11.546875h96.90625c6.375 0 11.546875-5.171875 11.546875-11.546875zm0 0" fill="#eee045"/><path d="m346 6h-111.546875c6.378906 0 11.546875 5.171875 11.546875 11.546875v72.453125h120v-64c0-11.046875-8.953125-20-20-20zm0 0" fill="#e8383b"/><path d="m137.546875 6h-111.546875c-11.046875 0-20 8.953125-20 20v64h120v-72.453125c0-6.375 5.171875-11.546875 11.546875-11.546875zm0 0" fill="#ef7f72"/><path d="m234.453125 6h-96.90625c-6.375 0-11.546875 5.171875-11.546875 11.546875v72.453125h120v-72.453125c0-6.375-5.171875-11.546875-11.546875-11.546875zm0 0" fill="#e95947"/><path d="m185.601562 114c33.136719 0 60 53.726562 60 120s-26.863281 120-60 120c66.273438 0 120-53.726562 120-120s-53.726562-120-120-120zm0 0" fill="#419b46"/><path d="m125.601562 234c0-66.273438 26.859376-120 60-120-66.277343 0-120 53.726562-120 120s53.722657 120 120 120c-33.140624 0-60-53.726562-60-120zm0 0" fill="#a4d4a0"/><path d="m245.601562 234c0-66.273438-26.863281-120-60-120-33.136718 0-60 53.726562-60 120s26.863282 120 60 120c33.136719 0 60-53.726562 60-120zm0 0" fill="#65bc49"/><path d="m185.601562 150c19.878907 0 36 37.609375 36 84s-16.121093 84-36 84c46.390626 0 84-37.609375 84-84s-37.609374-84-84-84zm0 0" fill="#4b67b0"/><path d="m149.601562 234c0-46.390625 16.117188-84 36-84-46.394531 0-84 37.609375-84 84s37.605469 84 84 84c-19.882812 0-36-37.609375-36-84zm0 0" fill="#89aadb"/><path d="m221.601562 234c0-46.390625-16.121093-84-36-84-19.882812 0-36 37.609375-36 84s16.117188 84 36 84c19.878907 0 36-37.609375 36-84zm0 0" fill="#6287c5"/><path d="m346 396h-320c-14.335938 0-26-11.664062-26-26v-280c0-3.3125 2.6875-6 6-6h360c3.3125 0 6 2.6875 6 6v280c0 14.335938-11.664062 26-26 26zm-334-300v274c0 7.71875 6.28125 14 14 14h320c7.71875 0 14-6.28125 14-14v-274zm0 0" fill="#1c2d6b"/><path d="m366 96h-360c-3.3125 0-6-2.6875-6-6v-64c0-14.335938 11.664062-26 26-26h320c14.335938 0 26 11.664062 26 26v64c0 3.3125-2.6875 6-6 6zm-354-12h348v-58c0-7.71875-6.28125-14-14-14h-320c-7.71875 0-14 6.28125-14 14zm0 0" fill="#1c2d6b"/><path d="m186 360c-69.476562 0-126-56.523438-126-126s56.523438-126 126-126 126 56.523438 126 126-56.523438 126-126 126zm0-240c-62.859375 0-114 51.140625-114 114s51.140625 114 114 114 114-51.140625 114-114-51.140625-114-114-114zm0 0" fill="#1c2d6b"/><path d="m186 324c-49.625 0-90-40.375-90-90s40.375-90 90-90 90 40.375 90 90-40.375 90-90 90zm0-168c-43.011719 0-78 34.988281-78 78s34.988281 78 78 78 78-34.988281 78-78-34.988281-78-78-78zm0 0" fill="#1c2d6b"/><path d="m330 48c0 13.253906-10.746094 24-24 24s-24-10.746094-24-24 10.746094-24 24-24 24 10.746094 24 24zm0 0" fill="#65bc49"/><path d="m306 78c-16.542969 0-30-13.457031-30-30s13.457031-30 30-30 30 13.457031 30 30-13.457031 30-30 30zm0-48c-9.925781 0-18 8.074219-18 18s8.074219 18 18 18 18-8.074219 18-18-8.074219-18-18-18zm0 0" fill="#1c2d6b"/><path d="m186 48c0 6.628906-5.371094 12-12 12s-12-5.371094-12-12 5.371094-12 12-12 12 5.371094 12 12zm0 0" fill="#1c2d6b"/><path d="m246 48c0 6.628906-5.371094 12-12 12s-12-5.371094-12-12 5.371094-12 12-12 12 5.371094 12 12zm0 0" fill="#1c2d6b"/><path d="m30 390h36v24h-36zm0 0" fill="#6287c5"/><path d="m305.996094 390h36v24h-36zm0 0" fill="#6287c5"/><g fill="#1c2d6b"><path d="m66 420h-36c-3.3125 0-6-2.6875-6-6v-24c0-3.3125 2.6875-6 6-6h36c3.3125 0 6 2.6875 6 6v24c0 3.3125-2.6875 6-6 6zm-30-12h24v-12h-24zm0 0"/><path d="m342 420h-36c-3.3125 0-6-2.6875-6-6v-24c0-3.3125 2.6875-6 6-6h36c3.3125 0 6 2.6875 6 6v24c0 3.3125-2.6875 6-6 6zm-30-12h24v-12h-24zm0 0"/><path d="m306 54c-3.3125 0-6-2.6875-6-6v-24c0-3.3125 2.6875-6 6-6s6 2.6875 6 6v24c0 3.3125-2.6875 6-6 6zm0 0"/><path d="m114 42h-72c-3.3125 0-6-2.6875-6-6s2.6875-6 6-6h72c3.3125 0 6 2.6875 6 6s-2.6875 6-6 6zm0 0"/><path d="m114 66h-72c-3.3125 0-6-2.6875-6-6s2.6875-6 6-6h72c3.3125 0 6 2.6875 6 6s-2.6875 6-6 6zm0 0"/><path d="m184.882812 298.996094c-1.535156 0-3.074218-.585938-4.242187-1.757813l-.355469-.355469c-8.761718-8.757812-8.761718-23.015624 0-31.777343l.355469-.351563c4.082031-4.085937 4.082031-10.726562 0-14.8125l-.355469-.351562c-8.761718-8.761719-8.761718-23.019532 0-31.78125l.355469-.351563c4.082031-4.085937 4.082031-10.726562 0-14.8125l-.355469-.351562c-8.761718-8.761719-8.761718-23.019531 0-31.777344l.355469-.355469c2.339844-2.34375 6.140625-2.34375 8.484375 0s2.34375 6.140625 0 8.484375l-.355469.351563c-4.082031 4.085937-4.082031 10.726562 0 14.8125l.355469.351562c8.761719 8.761719 8.761719 23.019532 0 31.78125l-.355469.351563c-4.082031 4.085937-4.082031 10.726562 0 14.8125l.355469.351562c8.761719 8.761719 8.761719 23.019531 0 31.777344l-.355469.355469c-4.082031 4.085937-4.082031 10.726562 0 14.808594l.355469.355468c2.34375 2.34375 2.34375 6.140625 0 8.484375-1.171875 1.171875-2.707031 1.757813-4.242188 1.757813zm0 0"/><path d="m226.804688 275.347656c-1.535157 0-3.074219-.585937-4.242188-1.757812-2.34375-2.34375-2.34375-6.140625 0-8.484375l.351562-.351563c4.085938-4.085937 4.085938-10.726562 0-14.8125l-.355468-.351562c-8.761719-8.761719-8.761719-23.019532 0-31.78125l.355468-.351563c4.085938-4.085937 4.085938-10.726562 0-14.8125l-.355468-.351562c-2.34375-2.34375-2.34375-6.144531 0-8.484375 2.34375-2.34375 6.144531-2.34375 8.484375 0l.339843.335937c4.261719 4.261719 6.597657 9.902344 6.597657 15.90625 0 6.003907-2.339844 11.644531-6.585938 15.890625l-.351562.351563c-4.082031 4.085937-4.082031 10.726562 0 14.8125l.335937.335937c4.261719 4.261719 6.597656 9.902344 6.597656 15.90625s-2.335937 11.644532-6.582031 15.886719l-.355469.355469c-1.164062 1.171875-2.699218 1.757812-4.234374 1.757812zm0 0"/><path d="m142.824219 275.347656c-1.535157 0-3.070313-.585937-4.242188-1.757812-2.34375-2.34375-2.34375-6.140625 0-8.484375l.355469-.351563c4.082031-4.085937 4.082031-10.726562 0-14.8125l-.355469-.351562c-8.761719-8.761719-8.761719-23.019532 0-31.78125l.355469-.351563c4.082031-4.085937 4.082031-10.726562 0-14.8125l-.355469-.351562c-2.34375-2.34375-2.34375-6.144531 0-8.484375 2.34375-2.34375 6.140625-2.34375 8.484375 0l.355469.351562c4.242187 4.246094 6.582031 9.886719 6.582031 15.890625 0 6-2.339844 11.644531-6.582031 15.890625l-.355469.351563c-4.082031 4.085937-4.082031 10.726562 0 14.8125l.355469.351562c4.242187 4.246094 6.582031 9.886719 6.582031 15.890625 0 6-2.339844 11.644532-6.582031 15.886719l-.355469.355469c-1.171875 1.171875-2.707031 1.757812-4.242187 1.757812zm0 0"/></g></svg>